<?xml version="1.0" encoding="UTF-8" standalone="no"?>
<!-- Created with Inkscape (http://www.inkscape.org/) -->

<svg
   version="1.1"
   id="svg1"
   width="165.35333"
   height="162.476"
   viewBox="0 0 165.35333 162.476"
   xmlns="http://www.w3.org/2000/svg"
   xmlns:svg="http://www.w3.org/2000/svg">
  <defs
     id="defs1" />
  <g
     id="g1">
    <path
       id="path1"
       d="M 7.6044063,-5.6848594 7.5809688,-8.0872031 H 0.40909375 l -0.0351563,2.4023437 H 0.7137812 c 0.2109375,-1.4179687 0.8320313,-1.96875 2.3085938,-2.015625 v 6.3046875 c 0,0.87890627 -0.1289062,1.00781252 -1.1601563,1.08984377 v 0.3046875 h 4.265625 v -0.3046875 c -1.03125,-0.0703125 -1.171875,-0.1875 -1.171875,-1.08984377 v -6.3046875 c 1.4765625,0.046875 2.0976562,0.5976563 2.296875,2.015625 z m 7.5410157,-0.2226562 c 0,-1.3828125 -1.136719,-2.1796875 -3.128906,-2.1796875 H 8.1610469 v 0.3046875 c 0.84375,0.070312 1.0078125,0.2578125 1.0078125,1.1015625 v 5.2851562 c 0,0.73828127 -0.1523438,0.97265627 -0.7148438,1.04296877 -0.035156,0 -0.1523437,0.0234375 -0.2929687,0.046875 v 0.3046875 h 3.9960941 v -0.3046875 c -0.949219,-0.1171875 -1.054688,-0.22265625 -1.054688,-1.08984377 v -2.2265625 c 1.617188,-0.011719 2.027344,-0.046875 2.554688,-0.2695312 0.960937,-0.3632813 1.488281,-1.0898438 1.488281,-2.015625 z m -2.050781,0.058594 c 0,0.75 -0.152344,1.2070313 -0.457032,1.4882813 -0.292968,0.234375 -0.679687,0.3164062 -1.535156,0.3164062 v -3.1992187 c 0,-0.28125 0.210938,-0.421875 0.597656,-0.421875 0.996094,0 1.394532,0.5273437 1.394532,1.8164062 z m 0,0"
       style="fill:#000000;fill-opacity:1;fill-rule:nonzero;stroke:none"
       aria-label="TP"
       transform="matrix(1.3333333,0,0,1.3333333,23.282667,91.072)" />
    <path
       id="path2"
       d="M 5.977375,1.4987344 V 0.90107812 H 8.125e-4 V 1.4987344 Z m 0,0"
       style="fill:#000000;fill-opacity:1;fill-rule:nonzero;stroke:none"
       aria-label="_"
       transform="matrix(1.3333333,0,0,1.3333333,46.842667,91.072)" />
    <path
       id="path3"
       d="M 9.0234375,-3.1301719 V -3.4348594 H 4.921875 v 0.3046875 c 1.03125,0.058594 1.2070313,0.1875 1.2070313,0.8320313 v 1.2539062 c 0,0.60937502 -0.3398438,0.87890627 -1.1484375,0.87890627 -0.75,0 -1.2539063,-0.234375 -1.640625,-0.75 C 2.8125,-1.5832969 2.5546875,-2.6028281 2.5546875,-4.0442344 c 0,-2.4960937 0.7617188,-3.8203125 2.203125,-3.8203125 0.5507813,0 1.0664063,0.2109375 1.59375,0.6679688 0.5039063,0.4570312 0.7851563,0.8554687 1.2070313,1.7695312 H 7.8515625 V -8.2278281 H 7.5351563 c -0.1757813,0.421875 -0.3046875,0.5507812 -0.5273438,0.5507812 -0.1054687,0 -0.2929687,-0.046875 -0.5507812,-0.1640625 -0.703125,-0.2929687 -1.2773438,-0.421875 -1.8515625,-0.421875 -2.3789063,0 -4.1601563,1.8398438 -4.1601563,4.3007813 0,2.4609375 1.7460938,4.18359372 4.2539063,4.18359372 1.2304687,0 2.53125,-0.28125 3.2929687,-0.73828125 V -2.0286094 c 0,-0.8671875 0.140625,-1.0078125 1.03125,-1.1015625 z m 5.8916015,-4.9570312 h -3.84375 l -1.1601562,4.125 c 1.1367192,0.09375 1.6289062,0.1640625 2.1562502,0.328125 1.054687,0.328125 1.6875,1.0195312 1.6875,1.8046875 0,0.6679687 -0.515625,1.19531247 -1.195313,1.19531247 -0.269531,0 -0.597656,-0.140625 -1.066406,-0.50390627 -0.515625,-0.3867187 -0.878906,-0.5390625 -1.183594,-0.5390625 -0.4335934,0 -0.7499997,0.3046875 -0.7499997,0.71484377 0,0.6328125 0.7031247,1.0546875 1.7578127,1.0546875 1.980469,0 3.375,-1.19531247 3.375,-2.88281247 0,-1.2421875 -0.761719,-2.1914063 -2.0625,-2.5664063 -0.457031,-0.1289062 -0.832031,-0.1757812 -1.804688,-0.234375 l 0.257813,-0.9726562 h 3.328125 z m 6.058594,4.0546875 c 0,-2.390625 -1.160156,-4.1953125 -2.707031,-4.1953125 -0.773438,0 -1.570313,0.5273437 -2.050782,1.3945312 -0.386718,0.65625 -0.65625,1.78125 -0.65625,2.765625 0,2.4609375 1.125,4.21875002 2.71875,4.21875002 1.546875,0 2.695313,-1.78125002 2.695313,-4.18359372 z m -1.898438,1.3828125 c 0,0.703125 -0.09375,1.6289062 -0.199218,1.95703122 -0.128907,0.33984375 -0.328125,0.515625 -0.597657,0.515625 -0.597656,0 -0.820312,-0.703125 -0.820312,-2.47265622 v -2.7421875 c 0,-1.8046875 0.222656,-2.4960938 0.796875,-2.4960938 0.585937,0 0.820312,0.7382813 0.820312,2.4960938 z m 0,0"
       style="fill:#000000;fill-opacity:1;fill-rule:nonzero;stroke:none"
       aria-label="G50"
       transform="matrix(1.3333333,0,0,1.3333333,58,91.072)" />
    <path
       id="path4"
       d="m 7.8754375,-2.7551719 c 0.2109375,0 0.421875,0 0.421875,-0.234375 0,-0.234375 -0.2109375,-0.234375 -0.421875,-0.234375 h -6.46875 c -0.1992187,0 -0.41015625,0 -0.41015625,0.234375 0,0.234375 0.21093755,0.234375 0.41015625,0.234375 z m 0,0"
       style="fill:#000000;fill-opacity:1;fill-rule:nonzero;stroke:none"
       aria-label="−"
       transform="matrix(1.3333333,0,0,1.3333333,89.530667,91.072)" />
    <path
       id="path5"
       d="m 7.1727656,-5.9075156 c 0,-1.3828125 -1.1367187,-2.1796875 -3.1289062,-2.1796875 H 0.18839063 v 0.3046875 c 0.84374997,0.070312 1.00781247,0.2578125 1.00781247,1.1015625 v 5.2851562 c 0,0.73828127 -0.1523437,0.97265627 -0.71484372,1.04296877 -0.0351563,0 -0.15234375,0.0234375 -0.29296875,0.046875 v 0.3046875 H 4.1844844 v -0.3046875 C 3.2352656,-0.42314063 3.1297969,-0.52860938 3.1297969,-1.3957969 v -2.2265625 c 1.6171875,-0.011719 2.0273437,-0.046875 2.5546875,-0.2695312 0.9609375,-0.3632813 1.4882812,-1.0898438 1.4882812,-2.015625 z m -2.0507812,0.058594 c 0,0.75 -0.1523438,1.2070313 -0.4570313,1.4882813 -0.2929687,0.234375 -0.6796875,0.3164062 -1.5351562,0.3164062 v -3.1992187 c 0,-0.28125 0.2109375,-0.421875 0.5976562,-0.421875 0.9960938,0 1.3945313,0.5273437 1.3945313,1.8164062 z m 0,0"
       style="fill:#000000;fill-opacity:1;fill-rule:nonzero;stroke:none"
       aria-label="P"
       transform="matrix(1.3333333,0,0,1.3333333,105.116,91.072)" />
    <path
       id="path6"
       d="m 7.8742266,-2.7551719 c 0.2109375,0 0.421875,0 0.421875,-0.234375 0,-0.234375 -0.2109375,-0.234375 -0.421875,-0.234375 h -6.46875 c -0.1992188,0 -0.41015629,0 -0.41015629,0.234375 0,0.234375 0.21093749,0.234375 0.41015629,0.234375 z m 0,0"
       style="fill:#000000;fill-opacity:1;fill-rule:nonzero;stroke:none"
       aria-label="−"
       transform="matrix(1.3333333,0,0,1.3333333,118.044,91.072)" />
    <path
       id="path7"
       d="m 5.2852109,-0.00126563 v -0.28125 C 4.1953672,-0.31767188 3.9961484,-0.49345313 3.9961484,-1.4075156 V -8.2278281 H 3.7852109 l -3.01171871,1.3007812 v 0.3164063 c 0.10546875,-0.035156 0.2109375,-0.070312 0.24609371,-0.09375 0.3164063,-0.1171875 0.6210938,-0.2109375 0.7734375,-0.2109375 0.3046875,0 0.4335938,0.2695312 0.4335938,0.8320312 v 4.6054688 c 0,0.97265622 -0.2460938,1.17187497 -1.42968751,1.19531247 v 0.28125 z m 7.1132811,-0.234375 v -0.28125 C 11.871148,-0.54032813 11.730523,-0.69267188 11.730523,-1.2082969 V -5.5090781 H 9.3281797 v 0.28125 c 0.5976562,0.046875 0.7382813,0.1992187 0.7382813,0.703125 v 3.3867187 c -0.3984376,0.39843752 -0.6328126,0.52734377 -0.9843751,0.52734377 -0.4921875,0 -0.6679687,-0.234375 -0.6679687,-0.84374997 v -4.0546875 h -2.25 v 0.28125 c 0.4921875,0.09375 0.5859375,0.2109375 0.5859375,0.703125 v 3.0117187 c 0,1.05468752 0.5976562,1.67578127 1.59375,1.67578127 0.6210937,0 1.0429687,-0.1875 1.7343753,-0.78515625 v 0.7734375 c 0.515625,-0.17578125 0.796875,-0.22265625 1.582031,-0.3046875 z m 0,0"
       style="fill:#000000;fill-opacity:1;fill-rule:nonzero;stroke:none"
       aria-label="1u"
       transform="matrix(1.3333333,0,0,1.3333333,130.44133,91.072)" />
    <path
       id="path8"
       d="M -16.06738,32.65868 H 30.4856 v 35.44748 h -46.55298 z"
       style="fill:none;stroke:#000000;stroke-width:0.3985;stroke-linecap:butt;stroke-linejoin:miter;stroke-miterlimit:10;stroke-dasharray:none;stroke-opacity:1"
       transform="matrix(1.3333333,0,0,-1.3333333,21.688,91.072)" />
    <path
       id="path9"
       d="m 5.1782422,-2.3438594 c 0,-1.4179687 -1.0429688,-2.4726562 -2.4375,-2.4726562 -1.4648438,0 -2.49609376,1.03125 -2.49609376,2.484375 0,1.44140622 1.01953126,2.46093747 2.46093746,2.46093747 1.453125,0 2.4726563,-1.03125 2.4726563,-2.47265627 z m -1.2304688,0.046875 c 0,1.42968752 -0.4335937,2.20312502 -1.2421875,2.20312502 -0.796875,0 -1.2304687,-0.7734375 -1.2304687,-2.17968752 0,-1.5 0.4453125,-2.3203125 1.2539062,-2.3203125 0.7734375,0 1.21875,0.84375 1.21875,2.296875 z m 5.109375,0.6328125 c 0,-0.9609375 -0.5390625,-1.6289062 -1.3125,-1.6289062 -0.328125,0 -0.5859375,0.1171875 -0.84375,0.3867187 v -1.8046875 h -1.359375 v 0.1640625 c 0.3164063,0.058594 0.3867188,0.1289063 0.3867188,0.4101563 v 4.23046872 h 0.082031 l 0.5507813,-0.3984375 c 0.3164062,0.29296875 0.5742187,0.3984375 0.9257812,0.3984375 0.9257813,0 1.5703125,-0.7265625 1.5703127,-1.75781252 z m -1.0195312,0.1289063 c 0,0.96093747 -0.2109375,1.40624997 -0.65625,1.40624997 -0.2929688,0 -0.4804688,-0.2109375 -0.4804688,-0.55078125 V -2.5079219 c 0.1171875,-0.3046875 0.2578125,-0.4101562 0.4804688,-0.4101562 0.4335937,0 0.65625,0.46875 0.65625,1.3828125 z m 3.7851558,0.57421872 c 0,-0.49218752 -0.269531,-0.80859372 -0.960937,-1.08984372 -0.480469,-0.1992188 -0.667969,-0.375 -0.667969,-0.609375 0,-0.234375 0.1875,-0.4101563 0.457031,-0.4101563 0.1875,0 0.363282,0.082031 0.515625,0.2226563 0.152344,0.140625 0.234375,0.2695312 0.328125,0.5742187 h 0.175782 v -1.0078125 h -0.152344 c -0.03516,0.1054688 -0.08203,0.140625 -0.175781,0.140625 -0.03516,0 -0.105469,-0.023437 -0.210938,-0.058594 -0.222656,-0.070312 -0.386719,-0.09375 -0.550781,-0.09375 -0.6328126,0 -1.0898438,0.421875 -1.0898438,1.0078125 0,0.46875 0.28125,0.7851562 0.9960938,1.0898437 0.480469,0.21093752 0.667969,0.37500002 0.667969,0.59765627 0,0.28125 -0.210938,0.45703125 -0.527344,0.45703125 -0.492188,0 -0.8085938,-0.31640625 -0.9492188,-0.91406252 H 9.4790234 v 1.14843752 h 0.1757813 c 0.070312,-0.15234375 0.1171875,-0.19921875 0.1757812,-0.19921875 0.035156,0 0.09375,0.01171875 0.1640625,0.046875 0.1992186,0.08203125 0.5624996,0.15234375 0.7499996,0.15234375 0.632813,0 1.078125,-0.43359375 1.078125,-1.0546872 z m 3.158204,0.1875 -0.164063,-0.09375 c -0.28125,0.33984375 -0.492187,0.45703125 -0.796875,0.45703125 -0.257812,0 -0.46875,-0.1171875 -0.609375,-0.3515625 -0.128906,-0.22265625 -0.1875,-0.45703127 -0.210937,-0.94921877 h 1.746093 c -0.03516,-0.5742187 -0.140625,-0.9023437 -0.351562,-1.171875 -0.222656,-0.2695312 -0.550781,-0.4101562 -0.949219,-0.4101562 -0.867187,0 -1.453125,0.6796875 -1.453125,1.6992187 0,1.01953127 0.574219,1.68750002 1.429688,1.68750002 0.574218,0 0.914062,-0.2109375 1.359375,-0.8671875 z M 14.090352,-1.9688594 H 13.16457 c 0.01172,-0.8320312 0.140625,-1.1132812 0.480469,-1.1132812 0.199219,0 0.328125,0.1171875 0.386719,0.328125 0.03516,0.1289062 0.04687,0.328125 0.05859,0.6796875 z m 4.045898,-0.7851562 c 0,-0.3164063 -0.234375,-0.5390625 -0.5625,-0.5390625 -0.351563,0 -0.609375,0.1875 -0.9375,0.6445312 v -0.5625 h -1.324219 v 0.1640625 c 0.304688,0.046875 0.375,0.1289063 0.375,0.4101563 v 2.05078122 c 0,0.28125 -0.07031,0.36328125 -0.375,0.421875 v 0.164062505 h 1.863281 V -0.16417188 c -0.433593,-0.0351563 -0.515625,-0.1171875 -0.515625,-0.55078125 V -2.0391719 c 0,-0.3632812 0.199219,-0.65625 0.421875,-0.65625 0.05859,0 0.128907,0.046875 0.199219,0.1523438 0.128906,0.1875 0.234375,0.2578125 0.421875,0.2578125 0.257813,0 0.433594,-0.1992188 0.433594,-0.46875 z m 3.459961,-0.2929688 v -0.1640625 h -1.054688 v 0.1640625 c 0.292969,0.011719 0.375,0.058594 0.375,0.234375 0,0.070312 -0.02344,0.1875 -0.07031,0.3046875 l -0.503906,1.2773438 -0.550782,-1.4179688 c -0.04687,-0.1289062 -0.05859,-0.1757812 -0.05859,-0.2226562 0,-0.09375 0.07031,-0.1523438 0.246093,-0.1640625 l 0.117188,-0.011719 v -0.1640625 h -1.746094 v 0.1640625 c 0.164063,0.023437 0.210938,0.046875 0.246094,0.1054688 0.02344,-0.011719 0.339844,0.6914062 0.457031,0.9726562 l 0.832031,2.06250002 h 0.1875 L 21.18606,-2.6602658 c 0.128906,-0.3046875 0.1875,-0.3632813 0.410156,-0.3867188 z m 3.322266,2.74218752 -0.105469,-0.140625 -0.07031,0.0703125 c -0.01172,0.0234375 -0.03516,0.0234375 -0.07031,0.0234375 -0.09375,0 -0.152344,-0.0585938 -0.152344,-0.17578125 V -2.3438594 c 0,-0.5859375 -0.527344,-0.9492187 -1.371094,-0.9492187 -0.796875,0 -1.324218,0.3515625 -1.324218,0.8789062 0,0.2929688 0.164062,0.4570313 0.457031,0.4570313 0.28125,0 0.46875,-0.1640625 0.46875,-0.4101563 0,-0.09375 -0.03516,-0.1875 -0.117188,-0.2929687 -0.07031,-0.070312 -0.09375,-0.1171875 -0.09375,-0.1523438 0,-0.1523437 0.199219,-0.2578125 0.445313,-0.2578125 0.410156,0 0.585937,0.1875 0.585937,0.609375 v 0.5039063 c -0.820312,0.2578125 -1.148437,0.3867187 -1.40625,0.5507812 -0.316406,0.2109375 -0.46875,0.45703127 -0.46875,0.76171877 0,0.43359375 0.316407,0.73828125 0.761719,0.73828125 0.410156,0 0.726563,-0.140625 1.113281,-0.48046875 0.07031,0.3515625 0.234375,0.48046875 0.574219,0.48046875 0.292969,0 0.515625,-0.10546875 0.773438,-0.3984375 z m -1.359375,-0.3984375 c -0.1875,0.22265625 -0.328125,0.3046875 -0.492188,0.3046875 -0.210937,0 -0.351562,-0.1875 -0.351562,-0.46875 0,-0.39843752 0.292968,-0.69140622 0.84375,-0.84375002 z m 3.770507,0 -0.175781,-0.0703125 c -0.140625,0.26953125 -0.257812,0.36328125 -0.398437,0.36328125 -0.199219,0 -0.269532,-0.1171875 -0.269532,-0.3984375 V -2.9063594 h 0.644532 v -0.3046875 h -0.644532 v -1.1835937 h -0.175781 c -0.433594,0.5976562 -0.703125,0.9140625 -1.160156,1.3007812 v 0.1875 h 0.363281 v 2.26171877 c 0,0.4453125 0.292969,0.7265625 0.773438,0.7265625 0.46875,0 0.75,-0.2109375 1.042968,-0.78515625 z m 1.78125,0.703125005 V -0.16417188 c -0.246093,-0.0351563 -0.328125,-0.140625 -0.328125,-0.3984375 V -3.2110469 h -1.335937 v 0.1640625 c 0.304687,0.058594 0.363281,0.1289063 0.363281,0.4101563 v 2.05078122 c 0,0.28125 -0.04687,0.33984375 -0.363281,0.421875 V -1.09375e-4 Z M 28.817891,-4.2774531 c 0,-0.3164063 -0.234375,-0.5390625 -0.527344,-0.5390625 -0.304688,0 -0.539063,0.2226562 -0.539063,0.5390625 0,0.3046875 0.234375,0.5273437 0.539063,0.5273437 0.292969,0 0.527344,-0.2226562 0.527344,-0.5273437 z m 3.767578,2.6835937 c 0,-0.984375 -0.667969,-1.6992187 -1.570313,-1.6992187 -0.878906,0 -1.570312,0.7265625 -1.570312,1.6757812 0,0.99609377 0.65625,1.71093752 1.570312,1.71093752 0.902344,0 1.570313,-0.7265625 1.570313,-1.68750002 z m -1.019532,0.035156 c 0,1.07812497 -0.140625,1.44140622 -0.550781,1.44140622 -0.410156,0 -0.550781,-0.3515625 -0.550781,-1.37109372 0,-1.2304688 0.128906,-1.59375 0.5625,-1.59375 0.398437,0 0.539062,0.3867187 0.539062,1.5234375 z m 4.951172,1.558593725 V -0.16417188 c -0.269531,-0.0234375 -0.339843,-0.10546875 -0.339843,-0.3984375 V -2.3204219 c 0,-0.5976562 -0.375,-0.9726562 -0.949219,-0.9726562 -0.410156,0 -0.738281,0.1875 -0.996094,0.5976562 v -0.515625 h -1.335937 v 0.1640625 c 0.316406,0.046875 0.375,0.1171875 0.375,0.4101563 v 2.05078122 c 0,0.29296875 -0.05859,0.3515625 -0.375,0.421875 v 0.164062505 h 1.6875 V -0.16417188 c -0.257813,-0.0351563 -0.339844,-0.140625 -0.339844,-0.3984375 V -2.4258906 c 0,-0.023437 0.04687,-0.09375 0.117187,-0.1640625 0.152344,-0.1523438 0.316407,-0.2460938 0.480469,-0.2460938 0.246094,0 0.363281,0.1875 0.363281,0.5859375 v 1.68750002 c 0,0.2578125 -0.09375,0.36328125 -0.328125,0.3984375 v 0.164062505 z m 0,0"
       style="fill:#000000;fill-opacity:1;fill-rule:nonzero;stroke:none"
       aria-label="Observation"
       transform="matrix(1.3333333,0,0,1.3333333,4.6933333,11.117333)" />
    <path
       id="path10"
       d="M 4.1352734,-3.4349531 4.0883984,-4.6185469 H 0.16261719 l -0.046875,1.1835938 h 0.1640625 c 0.17578125,-0.7617188 0.328125,-0.890625 1.11328121,-0.890625 h 0.375 v 3.49218748 c 0,0.5859375 -0.070312,0.66796875 -0.65625,0.703125 v 0.12890625 H 3.1508984 V -0.13026562 C 2.5766797,-0.16542187 2.4829297,-0.24745312 2.4829297,-0.76307812 V -4.3255781 h 0.375 c 0.796875,0 0.9492187,0.1289062 1.1132812,0.890625 z m 0.834961,0.6328125 c 0,-0.2226563 -0.1757813,-0.3984375 -0.3867188,-0.3984375 -0.2109375,0 -0.3867187,0.1757812 -0.3867187,0.3984375 0,0.1992187 0.1757812,0.375 0.375,0.375 0.2226562,0 0.3984375,-0.1757813 0.3984375,-0.375 z m 0,2.49609373 c 0,-0.2109375 -0.1757813,-0.3984375 -0.3867188,-0.3984375 -0.2109375,0 -0.3867187,0.1875 -0.3867187,0.3984375 0,0.2109375 0.1757812,0.38671875 0.375,0.38671875 0.2226562,0 0.3984375,-0.17578125 0.3984375,-0.38671875 z M 11.453633,-3.4349531 11.406758,-4.6185469 H 7.4809766 l -0.046875,1.1835938 h 0.1640625 c 0.1757812,-0.7617188 0.328125,-0.890625 1.1132812,-0.890625 h 0.375 v 3.49218748 c 0,0.5859375 -0.070312,0.66796875 -0.65625,0.703125 v 0.12890625 H 10.469258 V -0.13026562 C 9.8950391,-0.16542187 9.8012891,-0.24745312 9.8012891,-0.76307812 V -4.3255781 h 0.3749999 c 0.796875,0 0.949219,0.1289062 1.113281,0.890625 z m 4.904297,1.1015625 c 0,-0.6210938 -0.210938,-1.171875 -0.597657,-1.546875 -0.46875,-0.4804688 -1.230468,-0.7382813 -2.191406,-0.7382813 h -1.875 v 0.1289063 c 0.550781,0.058594 0.609375,0.1171875 0.609375,0.6328125 v 3.09374998 c 0,0.50390625 -0.08203,0.59765625 -0.609375,0.6328125 v 0.12890625 h 1.980469 c 0.808594,0 1.535156,-0.234375 1.96875,-0.62109375 0.457031,-0.41015628 0.714844,-1.03124998 0.714844,-1.71093748 z m -0.761719,0.046875 c 0,0.8320312 -0.292969,1.41796873 -0.855469,1.74609373 -0.351562,0.19921875 -0.761719,0.28125 -1.359375,0.28125 -0.28125,0 -0.363281,-0.0585938 -0.363281,-0.28125 V -4.0912031 c 0,-0.2109375 0.07031,-0.2695313 0.363281,-0.2695313 0.597656,0 1.042969,0.1171875 1.382813,0.3515625 0.539062,0.375 0.832031,0.9726563 0.832031,1.7226563 z m 5.80957,0 c 0,-0.6796875 -0.199219,-1.2773438 -0.585937,-1.6992188 -0.433594,-0.4804687 -1.019532,-0.7265625 -1.6875,-0.7265625 -1.335938,0 -2.285157,0.9960938 -2.285157,2.4023438 0,0.65625 0.222657,1.2890625 0.597657,1.69921873 0.410156,0.43359375 1.03125,0.703125 1.640625,0.703125 1.371093,0 2.320312,-0.97265625 2.320312,-2.37890623 z m -0.785156,0 c 0,0.4101562 -0.09375,0.890625 -0.234375,1.2539062 -0.05859,0.17578128 -0.1875,0.35156253 -0.339844,0.50390628 -0.246094,0.24609375 -0.5625,0.375 -0.925781,0.375 -0.328125,0 -0.644531,-0.12890625 -0.878906,-0.33984375 -0.363282,-0.328125 -0.597657,-1.03125003 -0.597657,-1.80468753 0,-0.703125 0.199219,-1.3828125 0.492188,-1.7109375 0.269531,-0.3046875 0.609375,-0.4570312 0.996094,-0.4570312 0.316406,0 0.644531,0.1289062 0.890625,0.3515625 0.375,0.3398437 0.597656,0.9960937 0.597656,1.828125 z m 5.52832,2.28515623 v -0.12890625 c -0.316406,-0.0234375 -0.386718,-0.09375 -0.621093,-0.609375 L 23.781758,-4.7005781 h -0.140625 l -1.441406,3.421875 c -0.445313,1.01953123 -0.539063,1.12499998 -0.867188,1.14843748 v 0.12890625 h 1.382813 v -0.12890625 c -0.339844,0 -0.480469,-0.09375 -0.480469,-0.29296875 0,-0.0820312 0.02344,-0.17578125 0.05859,-0.26953125 l 0.316406,-0.82031248 h 1.828125 l 0.292969,0.67968748 c 0.08203,0.1875 0.128906,0.36328125 0.128906,0.46875 0,0.0585938 -0.04687,0.140625 -0.09375,0.1640625 -0.08203,0.0585938 -0.140625,0.0703125 -0.398438,0.0703125 v 0.12890625 z M 24.344258,-1.7943281 h -1.605469 l 0.796875,-1.921875 z m 0,0"
       style="fill:#000000;fill-opacity:1;fill-rule:nonzero;stroke:none"
       aria-label="T:TDOA"
       transform="matrix(1.3333333,0,0,1.3333333,4.6933333,21.744)" />
    <path
       id="path11"
       d="m 3.7719922,-3.3522422 c 0,-0.2929687 -0.09375,-0.5625 -0.28125,-0.7617187 -0.28125,-0.3046875 -0.8789063,-0.5039063 -1.5351563,-0.5039063 H 0.11574219 v 0.1289063 c 0.515625,0.058594 0.5859375,0.1289062 0.5859375,0.6328125 v 3.02343746 c 0,0.5859375 -0.0585938,0.65625 -0.5859375,0.703125 V -6.796875e-4 H 2.0610547 V -0.12958594 c -0.5507813,-0.0234375 -0.65625,-0.1171875 -0.65625,-0.6328125 V -2.0280234 c 0.1875,0.011719 0.3046875,0.023437 0.4804687,0.023437 0.5507813,0 0.9257813,-0.070312 1.21875,-0.2460938 0.421875,-0.2226562 0.6679688,-0.6445312 0.6679688,-1.101562 z m -0.75,0.035156 c 0,0.6796875 -0.4101563,1.03125 -1.21875,1.03125 -0.140625,0 -0.234375,-0.011719 -0.3984375,-0.023437 v -1.8164063 c 0,-0.1875 0.046875,-0.234375 0.234375,-0.234375 0.9492187,0 1.3828125,0.328125 1.3828125,1.0429683 z m 2.1914062,0.515625 c 0,-0.2226563 -0.1757812,-0.3984375 -0.3867187,-0.3984375 -0.2109375,0 -0.3867188,0.1757812 -0.3867188,0.3984375 0,0.1992187 0.1757813,0.375 0.375,0.375 0.2226563,0 0.3984375,-0.1757813 0.3984375,-0.375 z m 0,2.49609371 c 0,-0.2109375 -0.1757812,-0.3984375 -0.3867187,-0.3984375 -0.2109375,0 -0.3867188,0.1875 -0.3867188,0.3984375 0,0.2109375 0.1757813,0.38671875 0.375,0.38671875 0.2226563,0 0.3984375,-0.17578125 0.3984375,-0.38671875 z M 12.481953,-6.796875e-4 V -0.12958594 c -0.316406,-0.0234375 -0.386719,-0.09375 -0.621094,-0.609375 L 10.114766,-4.6998984 H 9.9741406 l -1.4414062,3.421875 C 8.0874219,-0.25849219 7.9936719,-0.15302344 7.6655469,-0.12958594 V -6.796875e-4 H 9.0483594 V -0.12958594 c -0.3398438,0 -0.4804688,-0.09375 -0.4804688,-0.29296875 0,-0.0820313 0.023437,-0.17578125 0.058594,-0.26953125 l 0.316406,-0.82031246 h 1.8281254 l 0.292968,0.67968746 c 0.08203,0.1875 0.128907,0.36328125 0.128907,0.46875 0,0.0585938 -0.04687,0.140625 -0.09375,0.1640625 -0.08203,0.0585938 -0.140625,0.0703125 -0.398438,0.0703125 V -6.796875e-4 Z M 10.677266,-1.7936484 H 9.0717969 l 0.796875,-1.921875 z m 6.700195,-0.5390625 c 0,-0.6210938 -0.210938,-1.171875 -0.597656,-1.546875 -0.46875,-0.4804688 -1.230469,-0.7382813 -2.191407,-0.7382813 h -1.875 v 0.1289063 c 0.550782,0.058594 0.609375,0.1171875 0.609375,0.6328125 v 3.09374996 c 0,0.50390625 -0.08203,0.59765625 -0.609375,0.6328125 v 0.1289062525 h 1.980469 c 0.808594,0 1.535156,-0.2343750025 1.96875,-0.6210937525 0.457031,-0.41015626 0.714844,-1.03124996 0.714844,-1.71093746 z m -0.761719,0.046875 c 0,0.8320312 -0.292969,1.41796871 -0.855469,1.74609371 -0.351562,0.19921875 -0.761718,0.28125 -1.359375,0.28125 -0.28125,0 -0.363281,-0.0585938 -0.363281,-0.28125 V -4.0905234 c 0,-0.2109375 0.07031,-0.2695313 0.363281,-0.2695313 0.597657,0 1.042969,0.1171875 1.382813,0.3515625 0.539062,0.375 0.832031,0.9726563 0.832031,1.7226563 z m 4.435547,1.1132812 c 0,-0.5742187 -0.386719,-1.0195312 -1.300781,-1.5234375 -0.738281,-0.3984375 -1.03125,-0.703125 -1.03125,-1.0898437 0,-0.3867188 0.292969,-0.6445313 0.726562,-0.6445313 0.316407,0 0.609375,0.1289063 0.855469,0.3867188 0.210938,0.2226562 0.316406,0.3984375 0.421875,0.8203125 h 0.175781 l -0.152343,-1.4882813 h -0.152344 c -0.02344,0.1523438 -0.09375,0.234375 -0.222656,0.234375 -0.07031,0 -0.175782,-0.023437 -0.304688,-0.082031 -0.257812,-0.09375 -0.503906,-0.1523438 -0.75,-0.1523438 -0.269531,0 -0.5625,0.1054688 -0.785156,0.2929688 -0.269531,0.2226562 -0.410156,0.515625 -0.410156,0.9023437 0,0.5507813 0.304687,0.9375 1.089843,1.359375 0.503907,0.2695313 0.867188,0.5507813 1.042969,0.8085938 0.05859,0.09375 0.09375,0.234375 0.09375,0.41015621 0,0.46875 -0.351562,0.78515625 -0.855469,0.78515625 -0.632812,0 -1.066406,-0.38671875 -1.40625,-1.23046876 h -0.164062 l 0.210937,1.47656251 h 0.152344 c 0.01172,-0.140625 0.09375,-0.234375 0.199219,-0.234375 0.07031,0 0.1875,0.0234375 0.328125,0.08203125 0.257812,0.10546875 0.539062,0.15234375 0.820312,0.15234375 0.808594,0 1.417969,-0.55078125 1.417969,-1.26562521 z m 2.449219,-0.1757812 v -0.4453125 h -1.722656 v 0.4453125 z m 4.464844,0.09375 c 0,-0.3046875 -0.128907,-0.5859375 -0.339844,-0.7851563 -0.210938,-0.1875 -0.398438,-0.28125 -0.855469,-0.3867187 0.363281,-0.09375 0.515625,-0.1640625 0.679688,-0.3046875 0.175781,-0.1523438 0.28125,-0.4101563 0.28125,-0.703125 0,-0.7734375 -0.621094,-1.1835938 -1.828125,-1.1835938 H 23.94582 v 0.1289063 c 0.585938,0.035156 0.667969,0.1171875 0.667969,0.6328125 v 3.09374996 c 0,0.515625 -0.08203,0.609375 -0.667969,0.6328125 v 0.1289062525 h 2.332032 c 0.539062,0 1.042968,-0.1406250025 1.300781,-0.3867187525 0.246094,-0.22265625 0.386719,-0.5390625 0.386719,-0.86718746 z m -0.808594,0 c 0,0.38671871 -0.140625,0.65624996 -0.421875,0.82031246 -0.222656,0.1171875 -0.503906,0.17578125 -0.972656,0.17578125 -0.339844,0 -0.433594,-0.0585938 -0.433594,-0.28125 V -2.2741172 c 0.679687,0 0.996094,0.035156 1.242187,0.140625 0.398438,0.1640625 0.585938,0.4453125 0.585938,0.8789063 z m -0.140625,-2.1445313 c 0,0.5390625 -0.375,0.84375 -1.03125,0.84375 h -0.65625 v -1.59375 c 0,-0.1523437 0.04687,-0.2109375 0.152344,-0.2109375 h 0.304687 c 0.808594,0 1.230469,0.3398438 1.230469,0.9609375 z m 6.489258,1.6757813 c 0,-0.8671875 -0.492188,-1.4882813 -1.171875,-1.4882813 -0.386719,0 -0.691407,0.1757813 -0.996094,0.5507813 v -0.5390625 l -0.04687,-0.011719 c -0.375,0.1523438 -0.621094,0.2460938 -1.007813,0.3632813 v 0.1054687 c 0.07031,0 0.117188,0 0.175782,0 0.234375,0 0.292968,0.070312 0.292968,0.3867188 v 3.26953121 c 0,0.36328129 -0.08203,0.43359379 -0.492187,0.48046879 v 0.1171875 h 1.6875 V 1.3821328 c -0.527344,0 -0.609375,-0.082031 -0.609375,-0.51562499 v -1.1015625 c 0.234375,0.2343750025 0.410156,0.3046875 0.703125,0.3046875 0.820312,0 1.464844,-0.78515625 1.464844,-1.79296871 z m -0.609375,0.2695312 c 0,0.77343751 -0.339844,1.30078126 -0.84375,1.30078126 -0.316407,0 -0.714844,-0.2578125 -0.714844,-0.45703125 V -2.3327109 c 0,-0.2109375 0.386719,-0.4570313 0.703125,-0.4570313 0.515625,0 0.855469,0.5273438 0.855469,1.3359375 z m 4.095703,-0.1757812 c 0,-0.9140625 -0.644531,-1.5820313 -1.535156,-1.5820313 -0.914063,0 -1.546875,0.6679688 -1.546875,1.640625 0,0.93750001 0.65625,1.64062501 1.535156,1.64062501 0.878906,0 1.546875,-0.73828125 1.546875,-1.69921871 z m -0.632813,0.2460937 c 0,0.78515626 -0.316406,1.25390626 -0.832031,1.25390626 -0.28125,0 -0.539062,-0.1640625 -0.679687,-0.4453125 C 34.647969,-0.93817969 34.5425,-1.4186484 34.5425,-1.9225547 c 0,-0.65625 0.328125,-1.0898437 0.820313,-1.0898437 0.585937,0 0.996093,0.6679687 0.996093,1.6289062 z m 3.266602,0.56250001 c 0,-0.35156251 -0.164063,-0.58593751 -0.585938,-0.83203121 l -0.75,-0.4453125 c -0.199218,-0.1171875 -0.304687,-0.28125 -0.304687,-0.4804688 0,-0.28125 0.222656,-0.46875 0.539062,-0.46875 0.398438,0 0.609375,0.234375 0.773438,0.8554688 h 0.09375 l -0.02344,-0.9492188 h -0.07031 l -0.02344,0.011719 c -0.05859,0.058594 -0.07031,0.058594 -0.09375,0.058594 -0.04687,0 -0.117187,-0.011719 -0.1875,-0.046875 -0.152343,-0.058594 -0.304687,-0.082031 -0.480468,-0.082031 -0.5625,0 -0.960938,0.3515625 -0.960938,0.8554687 0,0.3867188 0.222656,0.6679688 0.820313,1.0078125 l 0.398437,0.2226563 c 0.246094,0.14062496 0.363281,0.31640621 0.363281,0.52734371 0,0.3046875 -0.222656,0.50390625 -0.574218,0.50390625 -0.480469,0 -0.726563,-0.26953125 -0.890625,-0.97265626 h -0.105469 v 1.07812501 h 0.09375 c 0.04687,-0.0703125 0.07031,-0.08203125 0.152344,-0.08203125 0.08203,0 0.152343,0.01171875 0.328125,0.0585937525 0.1875,0.0468749975 0.363281,0.0703124975 0.515625,0.0703124975 0.527343,0 0.972656,-0.41015625 0.972656,-0.890625 z m 0,0"
       style="fill:#000000;fill-opacity:1;fill-rule:nonzero;stroke:none"
       aria-label="P:ADS-Bpos"
       transform="matrix(1.3333333,0,0,1.3333333,4.6933333,32.372)" />
    <path
       id="path12"
       d="M 4.1352734,-3.4325938 4.0883984,-4.6161875 H 0.16261719 l -0.046875,1.1835937 h 0.1640625 c 0.17578125,-0.7617187 0.328125,-0.890625 1.11328121,-0.890625 h 0.375 v 3.49218755 c 0,0.5859375 -0.070312,0.66796875 -0.65625,0.703125 V 0.001 H 3.1508984 V -0.12790625 C 2.5766797,-0.1630625 2.4829297,-0.24509375 2.4829297,-0.76071875 V -4.3232188 h 0.375 c 0.796875,0 0.9492187,0.1289063 1.1132812,0.890625 z m 3.8994141,0.082031 c 0,-0.2929688 -0.09375,-0.5625 -0.28125,-0.7617188 -0.28125,-0.3046875 -0.8789062,-0.5039062 -1.5351562,-0.5039062 H 4.3784375 v 0.1289062 c 0.515625,0.058594 0.5859375,0.1289063 0.5859375,0.6328125 v 3.02343755 c 0,0.5859375 -0.058594,0.65625 -0.5859375,0.703125 V 0.001 H 6.32375 V -0.12790625 C 5.7729688,-0.15134375 5.6675,-0.24509375 5.6675,-0.76071875 V -2.0263438 c 0.1875,0.011719 0.3046875,0.023437 0.4804688,0.023437 0.5507812,0 0.9257812,-0.070312 1.21875,-0.2460937 0.421875,-0.2226563 0.6679687,-0.6445313 0.6679687,-1.1015623 z m -0.75,0.035156 c 0,0.6796875 -0.4101562,1.03125 -1.21875,1.03125 -0.140625,0 -0.234375,-0.011719 -0.3984375,-0.023437 V -4.124 c 0,-0.1875 0.046875,-0.234375 0.234375,-0.234375 0.9492188,0 1.3828125,0.328125 1.3828125,1.0429682 z m 2.1884766,0.515625 c 0,-0.2226562 -0.1757813,-0.3984375 -0.3867188,-0.3984375 -0.2109375,0 -0.3867187,0.1757813 -0.3867187,0.3984375 0,0.1992188 0.1757812,0.375 0.375,0.375 0.2226562,0 0.3984375,-0.1757812 0.3984375,-0.375 z m 0,2.4960938 c 0,-0.2109375 -0.1757813,-0.3984375 -0.3867188,-0.3984375 -0.2109375,0 -0.3867187,0.1875 -0.3867187,0.3984375 0,0.2109375 0.1757812,0.38671875 0.375,0.38671875 0.2226562,0 0.3984375,-0.17578125 0.3984375,-0.38671875 z m 5.6044919,-1.3945313 c 0,-0.8554687 -0.527343,-1.5117187 -1.21875,-1.5117187 -0.433593,0 -0.832031,0.2578125 -0.972656,0.5976562 v -2.1328125 l -0.03516,-0.011719 c -0.292969,0.1054687 -0.480469,0.1523437 -0.808594,0.2460937 l -0.199219,0.058594 v 0.1054687 c 0.03516,0 0.07031,0 0.117188,0 0.28125,0 0.339844,0.058594 0.339844,0.3515625 V -0.374 c 0,0.2109375 0.597656,0.4453125 1.148437,0.4453125 0.925781,0 1.628906,-0.7734375 1.628906,-1.7695313 z m -0.609375,0.328125 c 0,0.77343755 -0.328125,1.21875005 -0.902343,1.21875005 -0.363282,0 -0.679688,-0.1640625 -0.679688,-0.33984375 V -2.249 c 0,-0.2695313 0.328125,-0.515625 0.691406,-0.515625 0.539063,0 0.890625,0.5390625 0.890625,1.3945307 z m 4.119141,-0.2578125 c 0,-0.9140625 -0.644531,-1.5820312 -1.535156,-1.5820312 -0.914063,0 -1.546875,0.6679687 -1.546875,1.640625 0,0.9375 0.65625,1.640625 1.535156,1.640625 0.878906,0 1.546875,-0.73828125 1.546875,-1.6992188 z m -0.632813,0.2460938 c 0,0.78515625 -0.316406,1.25390625 -0.832031,1.25390625 -0.28125,0 -0.539062,-0.1640625 -0.679687,-0.4453125 C 16.243672,-0.9365 16.138203,-1.4169688 16.138203,-1.920875 c 0,-0.65625 0.328125,-1.0898438 0.820313,-1.0898438 0.585937,0 0.996093,0.6679688 0.996093,1.6289058 z m 2.786133,0.92578125 -0.09375,-0.0820313 c -0.152344,0.1875 -0.257812,0.24609375 -0.410156,0.24609375 -0.257813,0 -0.363281,-0.17578125 -0.363281,-0.6328125 v -1.992187 H 20.57668 V -3.139625 h -0.703125 v -0.8085938 c 0,-0.070313 -0.02344,-0.09375 -0.05859,-0.09375 -0.03516,0.070313 -0.08203,0.140625 -0.128906,0.1992188 -0.257813,0.3867187 -0.503907,0.6445312 -0.679688,0.75 -0.08203,0.046875 -0.117187,0.09375 -0.117187,0.1289062 0,0.023437 0,0.035156 0.02344,0.046875 h 0.375 v 2.0976563 c 0,0.5859375 0.210938,0.890625 0.609375,0.890625 0.351563,0 0.609375,-0.1640625 0.84375,-0.52734375 z M 24.130391,0.001 v -0.10546875 c -0.375,-0.0703125 -0.421875,-0.12890625 -0.421875,-0.609375 V -2.0966563 c 0,-0.7382812 -0.292969,-1.1132812 -0.855469,-1.1132812 -0.410156,0 -0.703125,0.1757812 -1.03125,0.5859375 v -2.1210938 l -0.03516,-0.011719 c -0.234375,0.082031 -0.410157,0.140625 -0.796875,0.2460937 l -0.1875,0.058594 v 0.1054687 c 0.02344,0 0.04687,0 0.08203,0 0.304687,0 0.351562,0.046875 0.351562,0.3515625 v 3.28125005 c 0,0.4921875 -0.03516,0.55078125 -0.445312,0.609375 V 0.001 h 1.511719 V -0.10446875 C 21.892109,-0.139625 21.821797,-0.233375 21.821797,-0.71384375 V -2.389625 c 0.292969,-0.3164063 0.503906,-0.4453125 0.773437,-0.4453125 0.351563,0 0.527344,0.2578125 0.527344,0.7382812 v 1.38281255 c 0,0.48046875 -0.07031,0.57421875 -0.46875,0.609375 V 0.001 Z m 0,0"
       style="fill:#000000;fill-opacity:1;fill-rule:nonzero;stroke:none"
       aria-label="TP:both"
       transform="matrix(1.3333333,0,0,1.3333333,4.6933333,42.998667)" />
    <path
       id="path13"
       d="m -11.43262,-53.35431 h 81.60397 v 28.92087 h -81.60397 z"
       style="fill:none;stroke:#000000;stroke-width:0.3985;stroke-linecap:butt;stroke-linejoin:miter;stroke-miterlimit:10;stroke-dasharray:none;stroke-opacity:1"
       transform="matrix(1.3333333,0,0,-1.3333333,21.688,91.072)" />
    <path
       id="path14"
       d="M 4.9797891,9.296875e-4 V -0.17485156 c -0.1171875,0 -0.2109375,-0.0351563 -0.28125,-0.12890625 l -1.40625,-1.99218749 c 0.421875,-0.1289063 0.5859375,-0.2226563 0.7851562,-0.3984375 0.1992188,-0.1875 0.3164063,-0.46875 0.3164063,-0.7734375 0,-0.8085938 -0.6914063,-1.2421875 -1.96875,-1.2421875 H 0.17510156 v 0.1757812 c 0.52734375,0.035156 0.62109375,0.140625 0.62109375,0.6328125 v 3.08203129 c 0,0.515625 -0.0703125,0.5859375 -0.62109375,0.64453125 V 9.296875e-4 H 2.5422891 V -0.17485156 C 1.9915078,-0.24516406 1.9211953,-0.31547656 1.9211953,-0.81938281 V -2.1787578 h 0.1875 L 3.5501016,9.296875e-4 Z M 3.1985391,-3.4443828 c 0,0.4453125 -0.1054688,0.7148437 -0.328125,0.8671875 -0.1757813,0.1171875 -0.421875,0.1640625 -0.9492188,0.1757812 v -1.78125 c 0,-0.046875 0.035156,-0.140625 0.046875,-0.1875 0.046875,-0.070312 0.1523438,-0.1054687 0.328125,-0.1054687 0.6445313,0 0.9023438,0.3046875 0.9023438,1.03125 z m 4.6699218,2.67187499 -0.1640625,-0.09375 c -0.28125,0.33984375 -0.4921875,0.45703125 -0.796875,0.45703125 -0.2578125,0 -0.46875,-0.1171875 -0.609375,-0.3515625 C 6.1692422,-0.98344531 6.1106484,-1.2178203 6.0872109,-1.7100078 H 7.8333047 C 7.7981484,-2.2842266 7.6926797,-2.6123516 7.4817422,-2.8818828 7.2590859,-3.1514141 6.9309609,-3.2920391 6.5325234,-3.2920391 c -0.8671875,0 -1.453125,0.6796875 -1.453125,1.6992188 0,1.01953124 0.5742188,1.68749999 1.4296875,1.68749999 0.5742188,0 0.9140625,-0.2109375 1.359375,-0.8671875 z M 6.9778359,-1.9678203 H 6.0520547 c 0.011719,-0.8320313 0.140625,-1.1132813 0.4804687,-1.1132813 0.1992188,0 0.328125,0.1171875 0.3867188,0.328125 0.035156,0.1289063 0.046875,0.328125 0.058594,0.6796875 z m 4.0224611,1.33593749 -0.128906,-0.12890625 c -0.257813,0.29296875 -0.433594,0.38671875 -0.726563,0.38671875 -0.6093749,0 -0.9843749,-0.59765625 -0.9843749,-1.54687499 0,-0.7265625 0.2226563,-1.1601563 0.5859375,-1.1601563 0.1054688,0 0.2109375,0.058594 0.2578124,0.1289063 0.03516,0.070312 0.03516,0.070312 0.03516,0.3632812 0,0.3398438 0.117188,0.4921875 0.386719,0.4921875 0.292969,0 0.480469,-0.1640625 0.480469,-0.4335937 0,-0.4335938 -0.46875,-0.7617188 -1.0781251,-0.7617188 -0.9609375,0 -1.6523438,0.7265625 -1.6523438,1.734375 0,0.97265629 0.6210938,1.65234379 1.4882813,1.65234379 0.5390626,0 0.9257816,-0.2109375 1.3359376,-0.7265625 z m 3.058594,-0.140625 -0.164063,-0.09375 c -0.28125,0.33984375 -0.492187,0.45703125 -0.796875,0.45703125 -0.257812,0 -0.46875,-0.1171875 -0.609375,-0.3515625 -0.128906,-0.22265625 -0.1875,-0.45703124 -0.210937,-0.94921874 h 1.746093 c -0.03516,-0.5742188 -0.140625,-0.9023438 -0.351562,-1.171875 -0.222656,-0.2695313 -0.550781,-0.4101563 -0.949219,-0.4101563 -0.867187,0 -1.453125,0.6796875 -1.453125,1.6992188 0,1.01953124 0.574219,1.68749999 1.429688,1.68749999 0.574218,0 0.914062,-0.2109375 1.359375,-0.8671875 z M 13.168266,-1.9678203 h -0.925782 c 0.01172,-0.8320313 0.140625,-1.1132813 0.480469,-1.1132813 0.199219,0 0.328125,0.1171875 0.386719,0.328125 0.03516,0.1289063 0.04687,0.328125 0.05859,0.6796875 z M 15.971977,9.296875e-4 V -0.16313281 c -0.246094,-0.0351563 -0.328125,-0.140625 -0.328125,-0.3984375 V -3.2100078 h -1.335938 v 0.1640625 c 0.304688,0.058594 0.363281,0.1289062 0.363281,0.4101562 v 2.05078129 c 0,0.28125 -0.04687,0.33984375 -0.363281,0.421875 V 9.296875e-4 Z M 15.679008,-4.2764141 c 0,-0.3164062 -0.234375,-0.5390625 -0.527344,-0.5390625 -0.304687,0 -0.539062,0.2226563 -0.539062,0.5390625 0,0.3046875 0.234375,0.5273438 0.539062,0.5273438 0.292969,0 0.527344,-0.2226563 0.527344,-0.5273438 z m 3.83789,1.2304688 v -0.1640625 h -1.054687 v 0.1640625 c 0.292969,0.011719 0.375,0.058594 0.375,0.234375 0,0.070312 -0.02344,0.1875 -0.07031,0.3046875 l -0.503906,1.2773437 -0.550781,-1.4179687 c -0.04687,-0.1289063 -0.05859,-0.1757813 -0.05859,-0.2226563 0,-0.09375 0.07031,-0.1523437 0.246094,-0.1640625 l 0.117187,-0.011719 v -0.1640625 h -1.746093 v 0.1640625 c 0.164062,0.023437 0.210937,0.046875 0.246093,0.1054687 0.02344,-0.011719 0.339844,0.6914063 0.457032,0.9726563 l 0.832031,2.06249999 h 0.1875 l 1.113281,-2.75390629 c 0.128906,-0.3046875 0.1875,-0.3632812 0.410156,-0.3867187 z m 2.82129,2.27343749 -0.164063,-0.09375 c -0.28125,0.33984375 -0.492187,0.45703125 -0.796875,0.45703125 -0.257812,0 -0.46875,-0.1171875 -0.609375,-0.3515625 -0.128906,-0.22265625 -0.1875,-0.45703124 -0.210937,-0.94921874 h 1.746093 c -0.03516,-0.5742188 -0.140625,-0.9023438 -0.351562,-1.171875 -0.222656,-0.2695313 -0.550781,-0.4101563 -0.949219,-0.4101563 -0.867187,0 -1.453125,0.6796875 -1.453125,1.6992188 0,1.01953124 0.574219,1.68749999 1.429688,1.68749999 0.574218,0 0.914062,-0.2109375 1.359375,-0.8671875 z M 21.447563,-1.9678203 h -0.925782 c 0.01172,-0.8320313 0.140625,-1.1132813 0.480469,-1.1132813 0.199219,0 0.328125,0.1171875 0.386719,0.328125 0.03516,0.1289063 0.04687,0.328125 0.05859,0.6796875 z m 4.045898,-0.7851563 c 0,-0.3164062 -0.234375,-0.5390625 -0.5625,-0.5390625 -0.351563,0 -0.609375,0.1875 -0.9375,0.6445313 v -0.5625 h -1.324219 v 0.1640625 c 0.304688,0.046875 0.375,0.1289062 0.375,0.4101562 v 2.05078129 c 0,0.28125 -0.07031,0.36328125 -0.375,0.421875 V 9.296875e-4 h 1.863281 V -0.16313281 c -0.433593,-0.0351563 -0.515625,-0.1171875 -0.515625,-0.55078125 V -2.0381328 c 0,-0.3632813 0.199219,-0.65625 0.421875,-0.65625 0.05859,0 0.128907,0.046875 0.199219,0.1523437 0.128906,0.1875 0.234375,0.2578125 0.421875,0.2578125 0.257813,0 0.433594,-0.1992187 0.433594,-0.46875 z m 5.466797,1.0898438 c 0,-0.9726563 -0.527344,-1.6289063 -1.300781,-1.6289063 -0.410157,0 -0.65625,0.1523438 -0.878907,0.5625 v -0.4804687 h -1.335937 v 0.1640625 c 0.316406,0.046875 0.386719,0.1171875 0.386719,0.4101562 v 3.49218754 c 0,0.29296876 -0.05859,0.35156246 -0.398438,0.41015626 V 1.4306172 H 29.34307 V 1.2782734 C 28.909477,1.2665547 28.792289,1.1259297 28.792289,0.65717969 v -0.984375 c 0.339844,0.3281249975 0.515625,0.421875 0.832031,0.421875 0.773438,0 1.335938,-0.7265625 1.335938,-1.75781249 z m -1.03125,0.09375 c 0,0.86718749 -0.199219,1.27734374 -0.597656,1.27734374 -0.222657,0 -0.433594,-0.1640625 -0.539063,-0.421875 V -2.4131328 c 0,-0.046875 0.07031,-0.1640625 0.152344,-0.2460938 0.140625,-0.1523437 0.292969,-0.2460937 0.457031,-0.2460937 0.351563,0 0.527344,0.421875 0.527344,1.3359375 z M 32.961234,9.296875e-4 V -0.16313281 c -0.234375,-0.0117188 -0.339843,-0.140625 -0.339843,-0.421875 V -4.7100078 h -1.324219 v 0.1640625 c 0.234375,0.023437 0.351562,0.1523437 0.351562,0.4101562 v 3.55078129 c 0,0.2578125 -0.117187,0.3984375 -0.351562,0.421875 V 9.296875e-4 Z m 3.556641,-0.3046874975 -0.105469,-0.140625 -0.07031,0.0703125 c -0.01172,0.0234375 -0.03516,0.0234375 -0.07031,0.0234375 -0.09375,0 -0.152343,-0.0585938 -0.152343,-0.17578125 V -2.3428203 c 0,-0.5859375 -0.527344,-0.9492188 -1.371094,-0.9492188 -0.796875,0 -1.324219,0.3515625 -1.324219,0.8789063 0,0.2929687 0.164063,0.4570312 0.457031,0.4570312 0.28125,0 0.46875,-0.1640625 0.46875,-0.4101562 0,-0.09375 -0.03516,-0.1875 -0.117187,-0.2929688 -0.07031,-0.070312 -0.09375,-0.1171875 -0.09375,-0.1523437 0,-0.1523438 0.199219,-0.2578125 0.445312,-0.2578125 0.410157,0 0.585938,0.1875 0.585938,0.609375 v 0.5039062 c -0.820313,0.2578125 -1.148438,0.3867188 -1.40625,0.5507813 -0.316406,0.2109375 -0.46875,0.45703124 -0.46875,0.76171874 0,0.43359375 0.316406,0.73828125 0.761719,0.73828125 0.410156,0 0.726562,-0.140625 1.113281,-0.48046875 0.07031,0.3515625 0.234375,0.48046875 0.574219,0.48046875 0.292968,0 0.515625,-0.10546875 0.773437,-0.3984375 z M 35.1585,-0.70219531 c -0.1875,0.22265625 -0.328125,0.3046875 -0.492187,0.3046875 -0.210938,0 -0.351563,-0.1875 -0.351563,-0.46875 0,-0.39843749 0.292969,-0.69140629 0.84375,-0.84374999 z m 4.447266,0.0703125 -0.128907,-0.12890625 c -0.257812,0.29296875 -0.433593,0.38671875 -0.726562,0.38671875 -0.609375,0 -0.984375,-0.59765625 -0.984375,-1.54687499 0,-0.7265625 0.222656,-1.1601563 0.585937,-1.1601563 0.105469,0 0.210938,0.058594 0.257813,0.1289063 0.03516,0.070312 0.03516,0.070312 0.03516,0.3632812 0,0.3398438 0.117188,0.4921875 0.386719,0.4921875 0.292969,0 0.480469,-0.1640625 0.480469,-0.4335937 0,-0.4335938 -0.46875,-0.7617188 -1.078125,-0.7617188 -0.960938,0 -1.652344,0.7265625 -1.652344,1.734375 0,0.97265629 0.621094,1.65234379 1.488281,1.65234379 0.539063,0 0.925781,-0.2109375 1.335938,-0.7265625 z M 41.483695,9.296875e-4 V -0.16313281 c -0.246093,-0.0351563 -0.328125,-0.140625 -0.328125,-0.3984375 V -3.2100078 h -1.335937 v 0.1640625 c 0.304687,0.058594 0.363281,0.1289062 0.363281,0.4101562 v 2.05078129 c 0,0.28125 -0.04687,0.33984375 -0.363281,0.421875 V 9.296875e-4 Z M 41.190727,-4.2764141 c 0,-0.3164062 -0.234375,-0.5390625 -0.527344,-0.5390625 -0.304688,0 -0.539063,0.2226563 -0.539063,0.5390625 0,0.3046875 0.234375,0.5273438 0.539063,0.5273438 0.292969,0 0.527344,-0.2226563 0.527344,-0.5273438 z m 4.21289,4.2773437875 V -0.16313281 c -0.269531,-0.0234375 -0.339844,-0.10546875 -0.339844,-0.3984375 V -2.3193828 c 0,-0.5976563 -0.375,-0.9726563 -0.949218,-0.9726563 -0.410157,0 -0.738282,0.1875 -0.996094,0.5976563 v -0.515625 h -1.335938 v 0.1640625 c 0.316407,0.046875 0.375,0.1171875 0.375,0.4101562 v 2.05078129 c 0,0.29296875 -0.05859,0.3515625 -0.375,0.421875 V 9.296875e-4 h 1.6875 V -0.16313281 c -0.257812,-0.0351563 -0.339843,-0.140625 -0.339843,-0.3984375 V -2.4248516 c 0,-0.023437 0.04687,-0.09375 0.117187,-0.1640625 0.152344,-0.1523437 0.316406,-0.2460937 0.480469,-0.2460937 0.246094,0 0.363281,0.1875 0.363281,0.5859375 v 1.68749999 c 0,0.2578125 -0.09375,0.36328125 -0.328125,0.3984375 V 9.296875e-4 Z M 48.881156,0.38764844 c 0,-0.5390625 -0.433593,-0.85546875 -1.136718,-0.85546875 h -0.457032 c -0.550781,0 -0.691406,-0.0585938 -0.691406,-0.24609375 0,-0.2109375 0.1875,-0.36328124 0.46875,-0.36328124 h 0.316406 c 0.328125,0 0.503907,-0.035156 0.738282,-0.1757813 0.316406,-0.1875 0.46875,-0.46875 0.46875,-0.84375 0,-0.2695312 -0.08203,-0.4804687 -0.269532,-0.6796875 h 0.5625 v -0.3632812 h -0.914062 c -0.304688,-0.1171875 -0.492188,-0.1523438 -0.773438,-0.1523438 -0.832031,0 -1.417968,0.4570313 -1.417968,1.1132813 0,0.2460937 0.09375,0.46875 0.246093,0.6679687 0.164063,0.1640625 0.292969,0.2578125 0.621094,0.3984375 -0.550781,0.18750004 -0.832031,0.44531254 -0.832031,0.80859379 0,0.29296875 0.128906,0.421875 0.574219,0.57421875 -0.445313,0.0703125 -0.667969,0.234375 -0.667969,0.52734375 0,0.39843751 0.515625,0.64453121 1.394531,0.64453121 1.160156,0 1.769531,-0.3632812 1.769531,-1.05468746 z m -0.550781,0.328125 c 0,0.31640626 -0.375,0.50390626 -1.066406,0.50390626 -0.621094,0 -0.9375,-0.1640625 -0.9375,-0.46875001 0,-0.15234375 0.04687,-0.22265625 0.246094,-0.38671875 h 1.207031 c 0.375,0 0.550781,0.1171875 0.550781,0.3515625 z M 47.650688,-2.1670391 c 0,0.6445313 -0.128907,0.9023438 -0.457032,0.9023438 -0.339843,0 -0.457031,-0.2578125 -0.457031,-0.9023438 0,-0.65625 0.128906,-0.9140625 0.457031,-0.9140625 0.328125,0 0.457032,0.2695313 0.457032,0.9140625 z m 8.581054,1.39453129 -0.140625,-0.0820313 c -0.117187,0.1875 -0.234375,0.2578125 -0.398437,0.2578125 -0.269532,0 -0.445313,-0.12890625 -0.832032,-0.63281259 0.386719,-0.5273437 0.457032,-0.6328125 0.644532,-0.9375 l 0.1875,-0.3046875 c 0.128906,-0.1992187 0.210937,-0.2578125 0.515625,-0.28125 v -0.1640625 h -1.441407 v 0.1640625 c 0.410157,0.046875 0.46875,0.082031 0.46875,0.28125 0,0.28125 -0.128906,0.515625 -0.539062,1.0195313 l -1.042969,-1.5 c 0.738281,-0.2695313 1.054688,-0.5742188 1.054688,-1.0195312 0,-0.515625 -0.457032,-0.84375 -1.160157,-0.84375 -0.84375,0 -1.359375,0.421875 -1.359375,1.1015624 0,0.3046875 0.08203,0.5273439 0.363282,1.0078125 -0.996094,0.4921875 -1.371094,0.9257814 -1.371094,1.5820314 0,0.71484369 0.550781,1.23046869 1.335937,1.23046869 0.515625,0 0.972657,-0.1875 1.546875,-0.609375 0.410157,0.45703125 0.667969,0.62109375 1.03125,0.62109375 0.222657,0 0.480469,-0.09375 0.65625,-0.22265625 0.105469,-0.09375 0.199219,-0.19921875 0.375,-0.4921875 z m -2.332031,0.0703125 c -0.269531,0.19921875 -0.445313,0.28125 -0.632813,0.28125 -0.199218,0 -0.445312,-0.1171875 -0.621093,-0.29296875 -0.292969,-0.31640624 -0.492188,-0.76171874 -0.492188,-1.12500004 0,-0.2578125 0.128906,-0.4335937 0.515625,-0.65625 l 0.328125,0.5039063 c 0.527344,0.7734375 0.679688,1.00781249 0.902344,1.28906249 z M 54.00518,-3.7139141 c 0,0.28125 -0.140625,0.4453125 -0.492188,0.5625 -0.363281,-0.4570312 -0.515625,-0.7617187 -0.515625,-1.0429687 0,-0.2460938 0.140625,-0.3984375 0.363281,-0.3984375 0.339844,0 0.644532,0.4101562 0.644532,0.8789062 z m 7.294922,3.08203129 -0.128907,-0.12890625 c -0.257812,0.29296875 -0.433593,0.38671875 -0.726562,0.38671875 -0.609375,0 -0.984375,-0.59765625 -0.984375,-1.54687499 0,-0.7265625 0.222656,-1.1601563 0.585937,-1.1601563 0.105469,0 0.210938,0.058594 0.257813,0.1289063 0.03516,0.070312 0.03516,0.070312 0.03516,0.3632812 0,0.3398438 0.117188,0.4921875 0.386719,0.4921875 0.292969,0 0.480469,-0.1640625 0.480469,-0.4335937 0,-0.4335938 -0.46875,-0.7617188 -1.078125,-0.7617188 -0.960938,0 -1.652344,0.7265625 -1.652344,1.734375 0,0.97265629 0.621094,1.65234379 1.488281,1.65234379 0.539063,0 0.925781,-0.2109375 1.335938,-0.7265625 z m 3.413086,-0.96093749 c 0,-0.984375 -0.667969,-1.6992188 -1.570313,-1.6992188 -0.878906,0 -1.570312,0.7265625 -1.570312,1.6757813 0,0.99609374 0.65625,1.71093749 1.570312,1.71093749 0.902344,0 1.570313,-0.7265625 1.570313,-1.68749999 z m -1.019532,0.035156 c 0,1.07812504 -0.140625,1.44140629 -0.550781,1.44140629 -0.410156,0 -0.550781,-0.3515625 -0.550781,-1.37109379 0,-1.2304687 0.128906,-1.59375 0.5625,-1.59375 0.398437,0 0.539062,0.3867188 0.539062,1.5234375 z m 4.942383,1.41796879 v -0.1640625 c -0.316406,-0.0117188 -0.398437,-0.10546875 -0.398437,-0.3984375 V -3.2100078 H 66.84307 v 0.1640625 c 0.339844,0.023437 0.421875,0.1171875 0.421875,0.4101562 v 1.96875004 c -0.222656,0.234375 -0.363281,0.31640625 -0.5625,0.31640625 -0.292968,0 -0.398437,-0.140625 -0.398437,-0.50390625 V -3.2100078 h -1.300781 v 0.1640625 c 0.28125,0.058594 0.339843,0.1171875 0.339843,0.4101562 v 1.75781254 c 0,0.609375 0.339844,0.97265625 0.925782,0.97265625 0.363281,0 0.609375,-0.10546875 1.007812,-0.45703125 v 0.45703125 c 0.304688,-0.10546875 0.46875,-0.140625 0.925781,-0.1875 z M 72.523734,9.296875e-4 V -0.16313281 c -0.269531,-0.0234375 -0.339843,-0.10546875 -0.339843,-0.3984375 V -2.3193828 c 0,-0.5976563 -0.375,-0.9726563 -0.949219,-0.9726563 -0.410156,0 -0.738281,0.1875 -0.996094,0.5976563 v -0.515625 h -1.335937 v 0.1640625 c 0.316406,0.046875 0.375,0.1171875 0.375,0.4101562 v 2.05078129 c 0,0.29296875 -0.05859,0.3515625 -0.375,0.421875 V 9.296875e-4 h 1.6875 V -0.16313281 c -0.257813,-0.0351563 -0.339844,-0.140625 -0.339844,-0.3984375 V -2.4248516 c 0,-0.023437 0.04687,-0.09375 0.117187,-0.1640625 0.152344,-0.1523437 0.316407,-0.2460937 0.480469,-0.2460937 0.246094,0 0.363281,0.1875 0.363281,0.5859375 v 1.68749999 c 0,0.2578125 -0.09375,0.36328125 -0.328125,0.3984375 V 9.296875e-4 Z m 2.4375,-0.7031249975 -0.175781,-0.0703125 c -0.140625,0.26953125 -0.257812,0.36328125 -0.398437,0.36328125 -0.199219,0 -0.269532,-0.1171875 -0.269532,-0.3984375 V -2.9053203 h 0.644532 v -0.3046875 h -0.644532 v -1.1835938 h -0.175781 c -0.433594,0.5976563 -0.703125,0.9140625 -1.160156,1.3007813 v 0.1875 h 0.363281 v 2.26171874 c 0,0.4453125 0.292969,0.7265625 0.773438,0.7265625 0.46875,0 0.75,-0.2109375 1.042968,-0.78515625 z m 0,0"
       style="fill:#000000;fill-opacity:1;fill-rule:nonzero;stroke:none"
       aria-label="Receiverplacing&amp;count"
       transform="matrix(1.3333333,0,0,1.3333333,10.872,134.50267)" />
    <path
       id="path15"
       d="m 4.9446328,-2.3440703 v -0.1289063 h -1.78125 v 0.1289063 c 0.3046875,0.023437 0.3867188,0.046875 0.46875,0.09375 0.1054688,0.070312 0.140625,0.2226562 0.140625,0.5273437 v 1.12500004 c 0,0.22265625 -0.421875,0.421875 -0.9257812,0.421875 -1.1367188,0 -1.828125,-0.796875 -1.828125,-2.09765624 0,-0.65625 0.1992187,-1.2890625 0.5039062,-1.6289063 0.3046875,-0.3398437 0.7382813,-0.5273437 1.2070313,-0.5273437 0.3984375,0 0.7382812,0.1289062 1.0078125,0.375 0.2109375,0.1992187 0.3164062,0.3867187 0.4921875,0.8085937 H 4.3938516 L 4.3352578,-4.7112578 H 4.1829141 c -0.046875,0.1289062 -0.1640625,0.2226562 -0.3164063,0.2226562 -0.070312,0 -0.1757812,-0.011719 -0.3046875,-0.070312 -0.3164062,-0.09375 -0.6328125,-0.1523437 -0.9492187,-0.1523437 -1.3945313,0 -2.39062504,1.0195312 -2.39062504,2.4492187 0,0.6796875 0.1875,1.2070313 0.57421875,1.61718754 0.46874999,0.48046875 1.13671879,0.73828125 1.91015629,0.73828125 0.5976562,0 1.4648437,-0.234375 1.7460937,-0.48046875 V -1.8050078 c 0,-0.4101563 0.082031,-0.5039063 0.4921875,-0.5390625 z m 1.4267578,-0.4570313 c 0,-0.2226562 -0.1757812,-0.3984375 -0.3867187,-0.3984375 -0.2109375,0 -0.3867188,0.1757813 -0.3867188,0.3984375 0,0.1992188 0.1757813,0.375 0.375,0.375 0.2226563,0 0.3984375,-0.1757812 0.3984375,-0.375 z m 0,2.49609379 c 0,-0.2109375 -0.1757812,-0.3984375 -0.3867187,-0.3984375 -0.2109375,0 -0.3867188,0.1875 -0.3867188,0.3984375 0,0.2109375 0.1757813,0.38671875 0.375,0.38671875 0.2226563,0 0.3984375,-0.17578125 0.3984375,-0.38671875 z M 13.663383,-2.3440703 v -0.1289063 h -1.78125 v 0.1289063 c 0.304687,0.023437 0.386719,0.046875 0.46875,0.09375 0.105469,0.070312 0.140625,0.2226562 0.140625,0.5273437 v 1.12500004 c 0,0.22265625 -0.421875,0.421875 -0.925781,0.421875 -1.136719,0 -1.8281254,-0.796875 -1.8281254,-2.09765624 0,-0.65625 0.1992187,-1.2890625 0.5039064,-1.6289063 0.304687,-0.3398437 0.738281,-0.5273437 1.207031,-0.5273437 0.398438,0 0.738281,0.1289062 1.007813,0.375 0.210937,0.1992187 0.316406,0.3867187 0.492187,0.8085937 h 0.164063 l -0.05859,-1.4648437 h -0.152344 c -0.04687,0.1289062 -0.164062,0.2226562 -0.316406,0.2226562 -0.07031,0 -0.175781,-0.011719 -0.304688,-0.070312 -0.316406,-0.09375 -0.632812,-0.1523437 -0.949218,-0.1523437 -1.3945317,0 -2.3906254,1.0195312 -2.3906254,2.4492187 0,0.6796875 0.1875,1.2070313 0.5742187,1.61718754 0.46875,0.48046875 1.1367187,0.73828125 1.9101567,0.73828125 0.597656,0 1.464843,-0.234375 1.746093,-0.48046875 V -1.8050078 c 0,-0.4101563 0.08203,-0.5039063 0.492188,-0.5390625 z m 2.419922,-0.4921875 c 0,-0.234375 -0.140625,-0.375 -0.375,-0.375 -0.292969,0 -0.503907,0.1640625 -0.84375,0.65625 v -0.6445313 l -0.03516,-0.011719 c -0.363281,0.1523437 -0.621093,0.2460937 -1.03125,0.375 v 0.1171875 c 0.09375,-0.023437 0.164063,-0.023437 0.246094,-0.023437 0.175781,0 0.234375,0.1054687 0.234375,0.4101562 v 1.74609379 c 0,0.3515625 -0.04687,0.3984375 -0.492187,0.48046875 v 0.1054687475 h 1.675781 V -0.10578906 c -0.480469,-0.0234375 -0.597656,-0.12890625 -0.597656,-0.52734375 V -2.1917266 c 0,-0.2226562 0.304687,-0.5742187 0.492187,-0.5742187 0.03516,0 0.105469,0.035156 0.175781,0.1054687 0.117188,0.09375 0.1875,0.140625 0.28125,0.140625 0.164063,0 0.269532,-0.1289062 0.269532,-0.3164062 z m 1.901367,2.8359374875 V -0.10578906 c -0.46875,-0.0351562 -0.515625,-0.10546875 -0.515625,-0.609375 V -3.1878203 l -0.03516,-0.023437 -1.078125,0.3867187 v 0.1054688 l 0.05859,-0.011719 c 0.08203,-0.011719 0.175782,-0.011719 0.234375,-0.011719 0.164063,0 0.234375,0.1054687 0.234375,0.4101562 v 1.61718754 c 0,0.50390625 -0.07031,0.5859375 -0.550781,0.609375 V -3.203125e-4 Z M 17.527641,-4.4065703 c 0,-0.1992188 -0.152344,-0.3515625 -0.351563,-0.3515625 -0.199219,0 -0.363281,0.1523437 -0.363281,0.3515625 0,0.1992187 0.164062,0.3515625 0.363281,0.3515625 0.199219,0 0.351563,-0.1523438 0.351563,-0.3515625 z m 4.045898,4.11328124 v -0.1171875 c -0.128906,0.0117188 -0.140625,0.0117188 -0.164062,0.0117188 -0.246094,0 -0.304688,-0.0703125 -0.304688,-0.3984375 V -4.7464141 l -0.03516,-0.011719 c -0.328125,0.1171875 -0.574219,0.1875 -1.019531,0.3046875 v 0.1054687 c 0.05859,0 0.09375,0 0.152343,0 0.257813,0 0.316407,0.070312 0.316407,0.3515625 v 1.0898438 c -0.257813,-0.2226563 -0.445313,-0.3046875 -0.726563,-0.3046875 -0.808594,0 -1.453125,0.796875 -1.453125,1.78125 0,0.89062499 0.527344,1.49999999 1.289063,1.49999999 0.386718,0 0.65625,-0.140625 0.890625,-0.46875 v 0.4453125 l 0.03516,0.0234375 z m -1.054687,-0.421875 c 0,0.046875 -0.04687,0.140625 -0.117188,0.2109375 -0.128906,0.140625 -0.292969,0.2109375 -0.503906,0.2109375 -0.574219,0 -0.960938,-0.5625 -0.960938,-1.41796874 0,-0.7851563 0.339844,-1.3007813 0.878907,-1.3007813 0.363281,0 0.703125,0.328125 0.703125,0.6914063 z m 6.146484,-1.00781254 c 0,-0.8671875 -0.492188,-1.4882812 -1.171875,-1.4882812 -0.386719,0 -0.691406,0.1757812 -0.996094,0.5507812 v -0.5390625 l -0.04687,-0.011719 c -0.375,0.1523437 -0.621094,0.2460937 -1.007812,0.3632812 v 0.1054688 c 0.07031,0 0.117187,0 0.175781,0 0.234375,0 0.292969,0.070312 0.292969,0.3867187 v 3.26953129 c 0,0.36328121 -0.08203,0.43359371 -0.492188,0.48046871 v 0.1171875 h 1.6875 V 1.3824922 c -0.527344,0 -0.609375,-0.082031 -0.609375,-0.51562501 v -1.1015625 c 0.234375,0.2343749975 0.410156,0.3046875 0.703125,0.3046875 0.820313,0 1.464844,-0.78515625 1.464844,-1.79296879 z m -0.609375,0.2695313 c 0,0.77343749 -0.339844,1.30078124 -0.84375,1.30078124 -0.316406,0 -0.714844,-0.2578125 -0.714844,-0.45703125 V -2.3323516 c 0,-0.2109375 0.386719,-0.4570312 0.703125,-0.4570312 0.515625,0 0.855469,0.5273437 0.855469,1.3359375 z m 2.607422,1.4531249875 V -0.10578906 c -0.445313,-0.0234375 -0.527344,-0.09375 -0.527344,-0.48046875 V -4.7464141 l -0.02344,-0.011719 c -0.363282,0.1171875 -0.632813,0.1875 -1.113282,0.3046875 v 0.1054687 h 0.04687 c 0.07031,0 0.164063,-0.011719 0.210938,-0.011719 0.222656,0 0.292969,0.09375 0.292969,0.421875 v 3.32812499 c 0,0.375 -0.09375,0.46875 -0.539063,0.50390625 V -3.203125e-4 Z M 31.891898,-0.28157031 v -0.17578125 c -0.117187,0.09375 -0.199218,0.12890625 -0.304687,0.12890625 -0.164063,0 -0.210938,-0.09375 -0.210938,-0.3984375 V -2.0979766 c 0,-0.3515625 -0.03516,-0.5507812 -0.128906,-0.703125 -0.152344,-0.2695312 -0.445312,-0.4101562 -0.878906,-0.4101562 -0.351563,0 -0.691406,0.1054687 -0.878906,0.2578125 -0.175782,0.1523437 -0.292969,0.3515625 -0.292969,0.5273437 0,0.1640625 0.140625,0.3046875 0.304687,0.3046875 0.164063,0 0.316407,-0.140625 0.316407,-0.2929687 0,-0.035156 -0.01172,-0.070312 -0.02344,-0.1171875 -0.01172,-0.058594 -0.01172,-0.1171875 -0.01172,-0.1640625 0,-0.1875 0.222657,-0.3398438 0.503907,-0.3398438 0.339843,0 0.527343,0.1992188 0.527343,0.5742188 v 0.421875 c -1.078125,0.4335937 -1.195312,0.4921875 -1.5,0.7617187 -0.152343,0.1289063 -0.246093,0.37500004 -0.246093,0.59765629 0,0.4453125 0.304687,0.75 0.726562,0.75 0.316406,0 0.597656,-0.15234375 1.019531,-0.50390625 0.03516,0.36328125 0.164063,0.50390625 0.445313,0.50390625 0.246094,0 0.386719,-0.08203125 0.632812,-0.3515625 z m -1.078125,-0.57421875 c 0,0.2109375 -0.03516,0.28125 -0.1875,0.36328125 -0.164062,0.10546875 -0.363281,0.15234375 -0.503906,0.15234375 -0.246094,0 -0.445312,-0.234375 -0.445312,-0.52734375 v -0.0351563 c 0,-0.41015619 0.292968,-0.65625009 1.136718,-0.96093759 z m 3.963868,-0.16406254 -0.09375,-0.070312 c -0.339844,0.49218754 -0.585938,0.65625004 -0.984375,0.65625004 -0.644532,0 -1.078125,-0.55078125 -1.078125,-1.35937504 0,-0.7265625 0.375,-1.2070312 0.949218,-1.2070312 0.246094,0 0.339844,0.070312 0.410157,0.328125 l 0.03516,0.1523437 c 0.05859,0.1992188 0.1875,0.328125 0.339844,0.328125 0.175781,0 0.328125,-0.140625 0.328125,-0.2929687 0,-0.3984375 -0.492188,-0.7265625 -1.078125,-0.7265625 -0.328125,0 -0.65625,0.1289062 -0.9375,0.3632812 -0.375,0.3046875 -0.585938,0.7851563 -0.585938,1.3710938 0,0.90234374 0.550781,1.54687499 1.324219,1.54687499 0.304687,0 0.5625,-0.09375 0.796875,-0.29296875 0.210937,-0.1640625 0.351562,-0.375 0.574219,-0.79687504 z m 3.175781,-0.070312 -0.105469,-0.058594 c -0.339844,0.53906249 -0.632812,0.73828124 -1.078125,0.73828124 -0.386719,0 -0.679687,-0.1875 -0.878906,-0.5625 C 35.750297,-1.2425078 35.691703,-1.4886016 35.679984,-1.9339141 h 2.144532 c -0.05859,-0.4453125 -0.128907,-0.65625 -0.304688,-0.8789062 -0.199219,-0.2460938 -0.527344,-0.3984375 -0.890625,-0.3984375 -0.867187,0 -1.453125,0.703125 -1.453125,1.7226562 0,0.96093754 0.503906,1.55859379 1.300781,1.55859379 0.667969,0 1.183594,-0.41015625 1.476563,-1.16015579 z m -0.84375,-1.0664062 h -1.417969 c 0.07031,-0.5507813 0.316406,-0.796875 0.738281,-0.796875 0.421875,0 0.597657,0.1875 0.679688,0.796875 z m 4.40918,1.86328124 v -0.1171875 c -0.128907,0.0117188 -0.140625,0.0117188 -0.164063,0.0117188 -0.246094,0 -0.304687,-0.0703125 -0.304687,-0.3984375 V -4.7464141 l -0.03516,-0.011719 c -0.328125,0.1171875 -0.574218,0.1875 -1.019531,0.3046875 v 0.1054687 c 0.05859,0 0.09375,0 0.152344,0 0.257812,0 0.316406,0.070312 0.316406,0.3515625 v 1.0898438 c -0.257812,-0.2226563 -0.445312,-0.3046875 -0.726562,-0.3046875 -0.808594,0 -1.453125,0.796875 -1.453125,1.78125 0,0.89062499 0.527343,1.49999999 1.289062,1.49999999 0.386719,0 0.65625,-0.140625 0.890625,-0.46875 v 0.4453125 l 0.03516,0.0234375 z m -1.054688,-0.421875 c 0,0.046875 -0.04687,0.140625 -0.117187,0.2109375 -0.128907,0.140625 -0.292969,0.2109375 -0.503907,0.2109375 -0.574218,0 -0.960937,-0.5625 -0.960937,-1.41796874 0,-0.7851563 0.339844,-1.3007813 0.878906,-1.3007813 0.363281,0 0.703125,0.328125 0.703125,0.6914063 z m 0,0"
       style="fill:#000000;fill-opacity:1;fill-rule:nonzero;stroke:none"
       aria-label="G:Gridplaced"
       transform="matrix(1.3333333,0,0,1.3333333,10.872,145.12933)" />
    <path
       id="path16"
       d="M 4.4172891,-0.78379688 4.2883828,-0.91270313 c -0.515625,0.4921875 -0.9726562,0.703125 -1.5585937,0.703125 -0.4101563,0 -0.796875,-0.12890625 -1.0898438,-0.36328125 -0.4101562,-0.3515625 -0.6328125,-0.97265622 -0.6328125,-1.78125002 0,-1.265625 0.6445313,-2.0742187 1.6523438,-2.0742187 0.4101562,0 0.7617187,0.140625 1.0429687,0.421875 0.2226563,0.2226562 0.328125,0.421875 0.4570313,0.8671875 H 4.3235391 L 4.2649453,-4.7095781 H 4.1126016 c -0.046875,0.140625 -0.1523438,0.2226562 -0.28125,0.2226562 -0.070312,0 -0.1757813,-0.011719 -0.28125,-0.058594 -0.3398438,-0.1054688 -0.6796875,-0.1640625 -1.03125,-0.1640625 -0.5273438,0 -1.078125,0.1992187 -1.5117188,0.5507812 -0.52734374,0.4335938 -0.80859374,1.1015625 -0.80859374,1.8984375 0,1.40625002 0.92578124,2.35546877 2.30859374,2.35546877 0.7851563,0 1.4765625,-0.31640625 1.9101563,-0.87890595 z M 5.9876016,-2.7994219 c 0,-0.2226562 -0.1757813,-0.3984375 -0.3867188,-0.3984375 -0.2109375,0 -0.3867187,0.1757813 -0.3867187,0.3984375 0,0.1992188 0.1757812,0.375 0.375,0.375 0.2226562,0 0.3984375,-0.1757812 0.3984375,-0.375 z m 0,2.49609377 c 0,-0.2109375 -0.1757813,-0.3984375 -0.3867188,-0.3984375 -0.2109375,0 -0.3867187,0.1875 -0.3867187,0.3984375 0,0.2109375 0.1757812,0.38671875 0.375,0.38671875 0.2226562,0 0.3984375,-0.17578125 0.3984375,-0.38671875 z M 12.506156,-1.2173906 h -0.175781 c -0.117187,0.24609372 -0.199219,0.41015622 -0.304687,0.51562497 -0.234375,0.29296875 -0.621094,0.43359375 -1.21875,0.43359375 h -0.46875 c -0.5156255,0 -0.5976567,-0.046875 -0.5976567,-0.29296875 V -3.8541094 c 0,-0.4921875 0.09375,-0.5976562 0.6445317,-0.6328125 V -4.6158281 H 8.4163125 v 0.1289062 c 0.515625,0.046875 0.609375,0.140625 0.609375,0.6328125 v 3.09375002 c 0,0.4921875 -0.09375,0.59765625 -0.609375,0.6328125 v 0.12890625 h 3.7500005 z m 3.169922,0.93749997 v -0.17578125 c -0.117187,0.09375 -0.199219,0.12890625 -0.304687,0.12890625 -0.164063,0 -0.210938,-0.09375 -0.210938,-0.3984375 V -2.0962969 c 0,-0.3515625 -0.03516,-0.5507812 -0.128906,-0.703125 -0.152344,-0.2695312 -0.445313,-0.4101562 -0.878906,-0.4101562 -0.351563,0 -0.691407,0.1054687 -0.878907,0.2578125 -0.175781,0.1523437 -0.292968,0.3515625 -0.292968,0.5273437 0,0.1640625 0.140625,0.3046875 0.304687,0.3046875 0.164063,0 0.316406,-0.140625 0.316406,-0.2929687 0,-0.035156 -0.01172,-0.070312 -0.02344,-0.1171875 -0.01172,-0.058594 -0.01172,-0.1171875 -0.01172,-0.1640625 0,-0.1875 0.222656,-0.3398438 0.503906,-0.3398438 0.339844,0 0.527344,0.1992188 0.527344,0.5742188 v 0.421875 c -1.078125,0.4335937 -1.195312,0.4921875 -1.5,0.7617187 -0.152344,0.1289063 -0.246094,0.37500002 -0.246094,0.59765627 0,0.4453125 0.304688,0.75 0.726563,0.75 0.316406,0 0.597656,-0.15234375 1.019531,-0.50390625 0.03516,0.36328125 0.164063,0.50390625 0.445313,0.50390625 0.246093,0 0.386718,-0.08203125 0.632812,-0.3515625 z m -1.078125,-0.57421875 c 0,0.2109375 -0.03516,0.28125 -0.1875,0.36328125 -0.164062,0.10546875 -0.363281,0.15234375 -0.503906,0.15234375 -0.246094,0 -0.445313,-0.234375 -0.445313,-0.52734375 v -0.0351563 c 0,-0.41015627 0.292969,-0.65625007 1.136719,-0.96093757 z m 3.424805,-1.98046872 c 0,-0.234375 -0.140625,-0.375 -0.375,-0.375 -0.292969,0 -0.503906,0.1640625 -0.84375,0.65625 v -0.6445313 l -0.03516,-0.011719 c -0.363282,0.1523437 -0.621094,0.2460937 -1.03125,0.375 v 0.1171875 c 0.09375,-0.023437 0.164062,-0.023437 0.246093,-0.023437 0.175782,0 0.234375,0.1054687 0.234375,0.4101562 v 1.74609377 c 0,0.3515625 -0.04687,0.3984375 -0.492187,0.48046875 v 0.10546875 h 1.675781 v -0.10546875 c -0.480469,-0.0234375 -0.597656,-0.12890625 -0.597656,-0.52734375 V -2.1900469 c 0,-0.2226562 0.304687,-0.5742187 0.492187,-0.5742187 0.03516,0 0.105469,0.035156 0.175782,0.1054687 0.117187,0.09375 0.1875,0.140625 0.28125,0.140625 0.164062,0 0.269531,-0.1289062 0.269531,-0.3164062 z m 3.172851,0.1289062 v -0.2695312 h -0.539062 c -0.140625,0 -0.246094,-0.023437 -0.386719,-0.070312 l -0.152344,-0.058594 c -0.1875,-0.070312 -0.375,-0.1054687 -0.5625,-0.1054687 -0.644531,0 -1.160156,0.5039062 -1.160156,1.1367187 0,0.4453125 0.1875,0.703125 0.644531,0.9375 l -0.292968,0.28125002 c -0.234375,0.19921875 -0.328125,0.33984375 -0.328125,0.48046875 0,0.140625 0.09375,0.234375 0.375,0.36328125 -0.492188,0.36328125 -0.679688,0.59765625 -0.679688,0.85546875 0,0.37500003 0.539063,0.67968753 1.207031,0.67968753 0.515625,0 1.066407,-0.1875 1.429688,-0.4804688 0.257812,-0.21093748 0.375,-0.43359373 0.375,-0.70312498 0,-0.43359375 -0.328125,-0.7265625 -0.84375,-0.75 l -0.890625,-0.0351563 c -0.375,-0.0117188 -0.550781,-0.0820313 -0.550781,-0.1875 0,-0.140625 0.234375,-0.38671872 0.421875,-0.44531242 0.05859,0.011719 0.105468,0.023437 0.128906,0.023437 0.128906,0.011719 0.222656,0.011719 0.269531,0.011719 0.257813,0 0.539063,-0.1054687 0.75,-0.2929687 0.234375,-0.1875 0.339844,-0.4335938 0.339844,-0.7851563 0,-0.1992187 -0.03516,-0.3632812 -0.140625,-0.5859375 z m -0.257812,3.15234377 c 0,0.41015625 -0.539063,0.67968753 -1.324219,0.67968753 -0.609375,0 -1.019531,-0.19921878 -1.019531,-0.51562503 0,-0.15234375 0.04687,-0.24609375 0.339844,-0.59765625 0.234375,0.046875 0.796875,0.09375 1.136718,0.09375 0.632813,0 0.867188,0.09375 0.867188,0.33984375 z M 20.211234,-1.8502031 c 0,0.3984375 -0.199218,0.6328125 -0.527343,0.6328125 -0.421875,0 -0.714844,-0.4453125 -0.714844,-1.1132813 v -0.023437 c 0,-0.4101562 0.199219,-0.65625 0.515625,-0.65625 0.222656,0 0.398437,0.1171875 0.515625,0.328125 0.128906,0.2460938 0.210937,0.5625 0.210937,0.8320308 z m 3.969727,0.7617187 -0.105469,-0.058594 c -0.339844,0.53906247 -0.632812,0.73828122 -1.078125,0.73828122 -0.386719,0 -0.679687,-0.1875 -0.878906,-0.5625 C 21.977836,-1.2408281 21.919242,-1.4869219 21.907523,-1.9322344 h 2.144532 c -0.05859,-0.4453125 -0.128907,-0.65625 -0.304688,-0.8789062 -0.199219,-0.2460938 -0.527344,-0.3984375 -0.890625,-0.3984375 -0.867187,0 -1.453125,0.703125 -1.453125,1.7226562 0,0.96093752 0.503906,1.55859377 1.300781,1.55859377 0.667969,0 1.183594,-0.41015625 1.476563,-1.16015627 z m -0.84375,-1.0664062 h -1.417969 c 0.07031,-0.5507813 0.316406,-0.796875 0.738281,-0.796875 0.421875,0 0.597657,0.1875 0.679688,0.796875 z m 3.413086,1.33593747 c 0,-0.35156247 -0.164063,-0.58593747 -0.585938,-0.83203127 l -0.75,-0.4453125 c -0.199218,-0.1171875 -0.304687,-0.28125 -0.304687,-0.4804687 0,-0.28125 0.222656,-0.46875 0.539062,-0.46875 0.398438,0 0.609375,0.234375 0.773438,0.8554687 h 0.09375 l -0.02344,-0.9492187 h -0.07031 l -0.02344,0.011719 c -0.05859,0.058594 -0.07031,0.058594 -0.09375,0.058594 -0.04687,0 -0.117187,-0.011719 -0.1875,-0.046875 -0.152343,-0.058594 -0.304687,-0.082031 -0.480468,-0.082031 -0.5625,0 -0.960938,0.3515625 -0.960938,0.8554688 0,0.3867187 0.222656,0.6679687 0.820313,1.0078125 l 0.398437,0.2226562 c 0.246094,0.14062502 0.363281,0.31640627 0.363281,0.52734377 0,0.3046875 -0.222656,0.50390625 -0.574218,0.50390625 -0.480469,0 -0.726563,-0.26953125 -0.890625,-0.97265622 h -0.105469 v 1.07812497 h 0.09375 c 0.04687,-0.0703125 0.07031,-0.08203125 0.152344,-0.08203125 0.08203,0 0.152343,0.01171875 0.328125,0.05859375 0.1875,0.046875 0.363281,0.0703125 0.515625,0.0703125 0.527343,0 0.972656,-0.41015625 0.972656,-0.890625 z m 2.126953,0.36328125 -0.09375,-0.0820313 c -0.152344,0.1875 -0.257812,0.24609375 -0.410156,0.24609375 -0.257813,0 -0.363281,-0.17578125 -0.363281,-0.6328125 V -2.9166094 h 0.703125 v -0.2226562 h -0.703125 v -0.8085938 c 0,-0.070312 -0.02344,-0.09375 -0.05859,-0.09375 -0.03516,0.070312 -0.08203,0.140625 -0.128906,0.1992188 -0.257813,0.3867187 -0.503907,0.6445312 -0.679688,0.75 -0.08203,0.046875 -0.117187,0.09375 -0.117187,0.1289062 0,0.023437 0,0.035156 0.02344,0.046875 h 0.375 v 2.09765627 c 0,0.5859375 0.210938,0.890625 0.609375,0.890625 0.351563,0 0.609375,-0.1640625 0.84375,-0.52734375 z m 4.602539,-0.56250002 -0.09375,-0.070312 c -0.339844,0.49218752 -0.585937,0.65625002 -0.984375,0.65625002 -0.644531,0 -1.078125,-0.55078125 -1.078125,-1.35937502 0,-0.7265625 0.375,-1.2070312 0.949219,-1.2070312 0.246094,0 0.339844,0.070312 0.410156,0.328125 l 0.03516,0.1523437 c 0.05859,0.1992188 0.1875,0.328125 0.339844,0.328125 0.175781,0 0.328125,-0.140625 0.328125,-0.2929687 0,-0.3984375 -0.492187,-0.7265625 -1.078125,-0.7265625 -0.328125,0 -0.65625,0.1289062 -0.9375,0.3632812 -0.375,0.3046875 -0.585937,0.7851563 -0.585937,1.3710938 0,0.90234372 0.550781,1.54687497 1.324218,1.54687497 0.304688,0 0.5625,-0.09375 0.796875,-0.29296875 0.210938,-0.1640625 0.351563,-0.375 0.574219,-0.79687502 z m 1.995117,1.01953127 v -0.10546875 c -0.46875,-0.0351563 -0.515625,-0.10546875 -0.515625,-0.609375 V -3.1861406 l -0.03516,-0.023437 -1.078125,0.3867187 v 0.1054688 l 0.05859,-0.011719 c 0.08203,-0.011719 0.175781,-0.011719 0.234375,-0.011719 0.164062,0 0.234375,0.1054687 0.234375,0.4101562 v 1.61718752 c 0,0.50390625 -0.07031,0.5859375 -0.550781,0.609375 V 0.00135937 Z M 35.017875,-4.4048906 c 0,-0.1992188 -0.152344,-0.3515625 -0.351562,-0.3515625 -0.199219,0 -0.363282,0.1523437 -0.363282,0.3515625 0,0.1992187 0.164063,0.3515625 0.363282,0.3515625 0.199218,0 0.351562,-0.1523438 0.351562,-0.3515625 z m 2.569336,3.94921872 -0.09375,-0.0820313 c -0.152344,0.1875 -0.257813,0.24609375 -0.410156,0.24609375 -0.257813,0 -0.363282,-0.17578125 -0.363282,-0.6328125 V -2.9166094 h 0.703125 v -0.2226562 h -0.703125 v -0.8085938 c 0,-0.070312 -0.02344,-0.09375 -0.05859,-0.09375 -0.03516,0.070312 -0.08203,0.140625 -0.128907,0.1992188 -0.257812,0.3867187 -0.503906,0.6445312 -0.679687,0.75 -0.08203,0.046875 -0.117188,0.09375 -0.117188,0.1289062 0,0.023437 0,0.035156 0.02344,0.046875 h 0.375 v 2.09765627 c 0,0.5859375 0.210937,0.890625 0.609375,0.890625 0.351562,0 0.609375,-0.1640625 0.84375,-0.52734375 z m 1.763672,0.45703125 v -0.10546875 c -0.46875,-0.0351563 -0.515625,-0.10546875 -0.515625,-0.609375 V -3.1861406 l -0.03516,-0.023437 -1.078125,0.3867187 v 0.1054688 l 0.05859,-0.011719 c 0.08203,-0.011719 0.175782,-0.011719 0.234375,-0.011719 0.164063,0 0.234375,0.1054687 0.234375,0.4101562 v 1.61718752 c 0,0.50390625 -0.07031,0.5859375 -0.550781,0.609375 V 0.00135937 Z M 38.893852,-4.4048906 c 0,-0.1992188 -0.152344,-0.3515625 -0.351563,-0.3515625 -0.199219,0 -0.363281,0.1523437 -0.363281,0.3515625 0,0.1992187 0.164062,0.3515625 0.363281,0.3515625 0.199219,0 0.351563,-0.1523438 0.351563,-0.3515625 z m 3.580078,3.3164062 -0.105469,-0.058594 c -0.339844,0.53906247 -0.632813,0.73828122 -1.078125,0.73828122 -0.386719,0 -0.679688,-0.1875 -0.878906,-0.5625 C 40.270805,-1.2408281 40.212211,-1.4869219 40.200492,-1.9322344 h 2.144531 c -0.05859,-0.4453125 -0.128906,-0.65625 -0.304687,-0.8789062 -0.199219,-0.2460938 -0.527344,-0.3984375 -0.890625,-0.3984375 -0.867188,0 -1.453125,0.703125 -1.453125,1.7226562 0,0.96093752 0.503906,1.55859377 1.300781,1.55859377 0.667969,0 1.183594,-0.41015625 1.476563,-1.16015627 z m -0.84375,-1.0664062 h -1.417969 c 0.07031,-0.5507813 0.316406,-0.796875 0.738281,-0.796875 0.421875,0 0.597656,0.1875 0.679688,0.796875 z m 3.413086,1.33593747 c 0,-0.35156247 -0.164063,-0.58593747 -0.585938,-0.83203127 l -0.75,-0.4453125 c -0.199219,-0.1171875 -0.304687,-0.28125 -0.304687,-0.4804687 0,-0.28125 0.222656,-0.46875 0.539062,-0.46875 0.398438,0 0.609375,0.234375 0.773438,0.8554687 h 0.09375 l -0.02344,-0.9492187 h -0.07031 l -0.02344,0.011719 c -0.05859,0.058594 -0.07031,0.058594 -0.09375,0.058594 -0.04687,0 -0.117187,-0.011719 -0.1875,-0.046875 -0.152344,-0.058594 -0.304687,-0.082031 -0.480469,-0.082031 -0.5625,0 -0.960937,0.3515625 -0.960937,0.8554688 0,0.3867187 0.222656,0.6679687 0.820312,1.0078125 l 0.398438,0.2226562 c 0.246094,0.14062502 0.363281,0.31640627 0.363281,0.52734377 0,0.3046875 -0.222656,0.50390625 -0.574219,0.50390625 -0.480468,0 -0.726562,-0.26953125 -0.890625,-0.97265622 h -0.105468 v 1.07812497 h 0.09375 c 0.04687,-0.0703125 0.07031,-0.08203125 0.152343,-0.08203125 0.08203,0 0.152344,0.01171875 0.328125,0.05859375 0.1875,0.046875 0.363282,0.0703125 0.515625,0.0703125 0.527344,0 0.972657,-0.41015625 0.972657,-0.890625 z m 0,0"
       style="fill:#000000;fill-opacity:1;fill-rule:nonzero;stroke:none"
       aria-label="C:Largestcities"
       transform="matrix(1.3333333,0,0,1.3333333,10.872,155.756)" />
    <path
       id="path17"
       d="m 62.06573,32.65868 h 33.6721 v 27.49818 h -33.6721 z"
       style="fill:none;stroke:#000000;stroke-width:0.3985;stroke-linecap:butt;stroke-linejoin:miter;stroke-miterlimit:10;stroke-dasharray:none;stroke-opacity:1"
       transform="matrix(1.3333333,0,0,-1.3333333,21.688,91.072)" />
    <path
       id="path18"
       d="M 4.7942891,-0.89149219 4.5833516,-1.0555547 c -0.4101563,0.42187501 -0.6328125,0.59765626 -0.9726563,0.72656251 -0.2109375,0.0820313 -0.4335937,0.12890625 -0.6328125,0.12890625 -0.4570312,0 -0.9023437,-0.24609375 -1.1015625,-0.609375 C 1.6771016,-1.1844609 1.5716328,-1.6766484 1.5716328,-2.3797734 c 0,-1.4414063 0.4453125,-2.2148438 1.2890625,-2.2148438 0.328125,0 0.6328125,0.1289063 0.9257813,0.3984375 0.3046875,0.2578125 0.4570312,0.5039063 0.703125,1.03125 h 0.1757812 v -1.6289062 h -0.1875 c -0.1054687,0.2460937 -0.1757812,0.3164062 -0.3046875,0.3164062 -0.070312,0 -0.1640625,-0.023437 -0.328125,-0.09375 -0.3984375,-0.1757812 -0.7382812,-0.2460937 -1.078125,-0.2460937 -1.3828125,0 -2.42578124,1.0664062 -2.42578124,2.4960937 0,1.44140626 1.01953124,2.44921876 2.47265624,2.44921876 0.796875,0 1.2773438,-0.24609375 1.9804688,-1.01953125 z M 6.8157734,-8.671875e-4 V -0.16492969 c -0.234375,-0.0117188 -0.3398437,-0.140625 -0.3398437,-0.421875 V -4.7118047 H 5.1517109 v 0.1640625 c 0.234375,0.023437 0.3515625,0.1523438 0.3515625,0.4101563 v 3.55078121 c 0,0.2578125 -0.1171875,0.3984375 -0.3515625,0.421875 V -8.671875e-4 Z M 10.290383,-1.5946172 c 0,-0.984375 -0.6679689,-1.6992187 -1.5703127,-1.6992187 -0.8789062,0 -1.5703125,0.7265625 -1.5703125,1.6757812 0,0.99609376 0.65625,1.71093751 1.5703125,1.71093751 0.9023438,0 1.5703127,-0.7265625 1.5703127,-1.68750001 z m -1.0195314,0.035156 c 0,1.07812496 -0.140625,1.44140621 -0.5507813,1.44140621 -0.4101562,0 -0.5507812,-0.3515625 -0.5507812,-1.37109371 0,-1.2304688 0.1289062,-1.59375 0.5625,-1.59375 0.3984375,0 0.5390625,0.3867187 0.5390625,1.5234375 z m 4.1894534,0.92578121 -0.128907,-0.12890625 c -0.257812,0.29296875 -0.433593,0.38671875 -0.726562,0.38671875 -0.609375,0 -0.984375,-0.59765625 -0.984375,-1.54687501 0,-0.7265625 0.222656,-1.1601562 0.585937,-1.1601562 0.105469,0 0.210938,0.058594 0.257813,0.1289062 0.03516,0.070312 0.03516,0.070312 0.03516,0.3632813 0,0.3398437 0.117188,0.4921875 0.386719,0.4921875 0.292969,0 0.480469,-0.1640625 0.480469,-0.4335938 0,-0.4335937 -0.46875,-0.7617187 -1.078125,-0.7617187 -0.960938,0 -1.652344,0.7265625 -1.652344,1.734375 0,0.97265621 0.621094,1.65234371 1.488281,1.65234371 0.539063,0 0.925781,-0.2109375 1.335938,-0.7265625 z m 3.741211,0.6328125025 V -0.16492969 c -0.07031,0 -0.105469,-0.0234375 -0.175782,-0.10546875 L 15.678078,-2.1453984 c 0.691406,-0.7265625 0.878906,-0.8554688 1.3125,-0.9140625 v -0.1523438 h -1.488281 v 0.1523438 c 0.07031,0.023437 0.140625,0.023437 0.164062,0.035156 0.164063,0.023437 0.246094,0.070312 0.246094,0.1523438 0,0.070312 -0.07031,0.1992187 -0.140625,0.2695312 l -0.902344,0.890625 v -3 h -1.300781 v 0.1640625 c 0.234375,0.023437 0.339844,0.140625 0.339844,0.4101563 v 3.55078121 c 0,0.26953125 -0.105469,0.3984375 -0.339844,0.421875 v 0.1640625025 h 1.664063 V -0.16492969 c -0.328125,-0.046875 -0.363282,-0.09375 -0.363282,-0.421875 V -1.3836797 l 0.164063,-0.1640625 0.667969,0.93750001 c 0.117187,0.17578125 0.164062,0.2578125 0.164062,0.3046875 0,0.09375 -0.09375,0.12890625 -0.292969,0.140625 v 0.1640625025 z m 0,0"
       style="fill:#000000;fill-opacity:1;fill-rule:nonzero;stroke:none"
       aria-label="Clock"
       transform="matrix(1.3333333,0,0,1.3333333,108.86933,21.716)" />
    <path
       id="path19"
       d="m 3.7747578,-3.35175 c 0,-0.2929687 -0.09375,-0.5625 -0.28125,-0.7617187 C 3.2122578,-4.4181562 2.6146016,-4.617375 1.9583516,-4.617375 H 0.11850781 v 0.1289063 c 0.515625,0.058594 0.5859375,0.1289062 0.5859375,0.6328125 v 3.02343745 c 0,0.5859375 -0.0585938,0.65625 -0.5859375,0.703125 V -1.875e-4 H 2.0638203 v -0.12890625 c -0.5507812,-0.0234375 -0.65625,-0.1171875 -0.65625,-0.6328125 V -2.0275312 c 0.1875,0.011719 0.3046875,0.023437 0.4804688,0.023437 0.5507812,0 0.9257812,-0.070312 1.21875,-0.2460938 0.421875,-0.2226562 0.6679687,-0.6445312 0.6679687,-1.101562 z m -0.75,0.035156 c 0,0.6796875 -0.4101562,1.03125 -1.21875,1.03125 -0.140625,0 -0.234375,-0.011719 -0.3984375,-0.023437 v -1.8164063 c 0,-0.1875 0.046875,-0.234375 0.234375,-0.234375 0.9492188,0 1.3828125,0.328125 1.3828125,1.0429683 z m 2.1884766,0.515625 c 0,-0.2226563 -0.1757813,-0.3984375 -0.3867188,-0.3984375 -0.2109375,0 -0.3867187,0.1757812 -0.3867187,0.3984375 0,0.1992187 0.1757812,0.375 0.375,0.375 0.2226562,0 0.3984375,-0.1757813 0.3984375,-0.375 z m 0,2.4960937 c 0,-0.2109375 -0.1757813,-0.3984375 -0.3867188,-0.3984375 -0.2109375,0 -0.3867187,0.1875 -0.3867187,0.3984375 0,0.2109375 0.1757812,0.38671875 0.375,0.38671875 0.2226562,0 0.3984375,-0.17578125 0.3984375,-0.38671875 z M 11.333352,-3.35175 c 0,-0.2929687 -0.09375,-0.5625 -0.28125,-0.7617187 C 10.770852,-4.4181562 10.173195,-4.617375 9.5169453,-4.617375 H 7.6771016 v 0.1289063 c 0.515625,0.058594 0.5859375,0.1289062 0.5859375,0.6328125 v 3.02343745 c 0,0.5859375 -0.058594,0.65625 -0.5859375,0.703125 V -1.875e-4 h 1.9453125 v -0.12890625 c -0.5507813,-0.0234375 -0.65625,-0.1171875 -0.65625,-0.6328125 V -2.0275312 c 0.1875,0.011719 0.3046875,0.023437 0.4804687,0.023437 0.5507813,0 0.9257812,-0.070312 1.2187502,-0.2460938 0.421875,-0.2226562 0.667969,-0.6445312 0.667969,-1.101562 z m -0.75,0.035156 c 0,0.6796875 -0.410157,1.03125 -1.2187504,1.03125 -0.140625,0 -0.234375,-0.011719 -0.3984375,-0.023437 v -1.8164063 c 0,-0.1875 0.046875,-0.234375 0.234375,-0.234375 0.9492189,0 1.3828129,0.328125 1.3828129,1.0429683 z m 3.632812,2.2265625 -0.105469,-0.058594 c -0.339843,0.5390625 -0.632812,0.73828125 -1.078125,0.73828125 -0.386718,0 -0.679687,-0.1875 -0.878906,-0.5625 C 12.013039,-1.242375 11.954445,-1.4884687 11.942727,-1.9337812 h 2.144531 c -0.05859,-0.4453125 -0.128906,-0.65625 -0.304688,-0.8789063 -0.199218,-0.2460937 -0.527343,-0.3984375 -0.890625,-0.3984375 -0.867187,0 -1.453125,0.703125 -1.453125,1.7226563 0,0.96093745 0.503907,1.5585937 1.300782,1.5585937 0.667968,0 1.183593,-0.41015625 1.476562,-1.1601565 z m -0.84375,-1.0664063 h -1.417969 c 0.07031,-0.5507812 0.316407,-0.796875 0.738282,-0.796875 0.421875,0 0.597656,0.1875 0.679687,0.796875 z M 16.69175,-2.836125 c 0,-0.234375 -0.140625,-0.375 -0.375,-0.375 -0.292969,0 -0.503906,0.1640625 -0.84375,0.65625 v -0.6445312 l -0.03516,-0.011719 c -0.363281,0.1523438 -0.621094,0.2460938 -1.03125,0.375 v 0.1171875 c 0.09375,-0.023437 0.164062,-0.023437 0.246094,-0.023437 0.175781,0 0.234375,0.1054688 0.234375,0.4101563 v 1.7460937 c 0,0.3515625 -0.04687,0.3984375 -0.492188,0.48046875 V -1.875e-4 h 1.675781 V -0.10565625 C 15.590188,-0.12909375 15.473,-0.2345625 15.473,-0.633 v -1.5585937 c 0,-0.2226563 0.304688,-0.5742188 0.492188,-0.5742188 0.03516,0 0.105468,0.035156 0.175781,0.1054688 0.117187,0.09375 0.1875,0.140625 0.28125,0.140625 0.164062,0 0.269531,-0.1289063 0.269531,-0.3164063 z m 2.800781,-1.4882812 c 0,-0.2578125 -0.304687,-0.4335938 -0.726562,-0.4335938 -0.433594,0 -0.796875,0.1875 -0.984375,0.4921875 -0.175781,0.3164063 -0.234375,0.5742188 -0.246094,1.125 h -0.574219 v 0.2226563 H 17.5355 V -0.72675 c 0,0.515625 -0.07031,0.59765625 -0.574219,0.62109375 V -1.875e-4 h 1.816407 v -0.10546875 c -0.574219,-0.0234375 -0.65625,-0.09375 -0.65625,-0.62109375 v -2.1914062 h 0.855468 v -0.2226563 h -0.855468 v -0.8085937 c 0,-0.4101563 0.128906,-0.6210938 0.398437,-0.6210938 0.152344,0 0.234375,0.070312 0.363281,0.2695313 0.117188,0.1992187 0.199219,0.2578125 0.316407,0.2578125 0.164062,0 0.292968,-0.1289063 0.292968,-0.28125 z m 2.358399,3.234375 -0.105469,-0.058594 c -0.339844,0.5390625 -0.632813,0.73828125 -1.078125,0.73828125 -0.386719,0 -0.679688,-0.1875 -0.878906,-0.5625 C 19.647805,-1.242375 19.589211,-1.4884687 19.577492,-1.9337812 h 2.144531 c -0.05859,-0.4453125 -0.128906,-0.65625 -0.304687,-0.8789063 -0.199219,-0.2460937 -0.527344,-0.3984375 -0.890625,-0.3984375 -0.867188,0 -1.453125,0.703125 -1.453125,1.7226563 0,0.96093745 0.503906,1.5585937 1.300781,1.5585937 0.667969,0 1.183594,-0.41015625 1.476563,-1.1601562 z m -0.84375,-1.0664063 h -1.417969 c 0.07031,-0.5507812 0.316406,-0.796875 0.738281,-0.796875 0.421875,0 0.597656,0.1875 0.679688,0.796875 z m 3.858398,1.1367188 -0.09375,-0.070312 c -0.339844,0.49218745 -0.585937,0.65624995 -0.984375,0.65624995 -0.644531,0 -1.078125,-0.55078125 -1.078125,-1.35937495 0,-0.7265625 0.375,-1.2070313 0.949219,-1.2070313 0.246094,0 0.339844,0.070312 0.410156,0.328125 l 0.03516,0.1523438 c 0.05859,0.1992187 0.1875,0.328125 0.339844,0.328125 0.175781,0 0.328125,-0.140625 0.328125,-0.2929688 0,-0.3984375 -0.492187,-0.7265625 -1.078125,-0.7265625 -0.328125,0 -0.65625,0.1289063 -0.9375,0.3632813 -0.375,0.3046875 -0.585937,0.7851562 -0.585937,1.3710937 0,0.90234375 0.550781,1.546875 1.324218,1.546875 0.304688,0 0.5625,-0.09375 0.796875,-0.29296875 0.210938,-0.1640625 0.351563,-0.375 0.574219,-0.79687495 z m 2.170899,0.56249995 -0.09375,-0.0820313 c -0.152344,0.1875 -0.257813,0.24609375 -0.410157,0.24609375 -0.257812,0 -0.363281,-0.17578125 -0.363281,-0.6328125 v -1.9921874 h 0.703125 v -0.2226563 h -0.703125 v -0.8085937 c 0,-0.070313 -0.02344,-0.09375 -0.05859,-0.09375 -0.03516,0.070313 -0.08203,0.140625 -0.128906,0.1992187 -0.257812,0.3867188 -0.503906,0.6445313 -0.679687,0.75 -0.08203,0.046875 -0.117188,0.09375 -0.117188,0.1289063 0,0.023437 0,0.035156 0.02344,0.046875 h 0.375 V -0.8205 c 0,0.5859375 0.210937,0.890625 0.609375,0.890625 0.351562,0 0.609375,-0.1640625 0.84375,-0.52734375 z m 0,0"
       style="fill:#000000;fill-opacity:1;fill-rule:nonzero;stroke:none"
       aria-label="P:Perfect"
       transform="matrix(1.3333333,0,0,1.3333333,108.86933,32.344)" />
    <path
       id="path20"
       d="m 3.4231953,-1.1733125 c 0,-0.5742188 -0.3867187,-1.0195313 -1.3007812,-1.5234375 -0.7382813,-0.3984375 -1.03125,-0.703125 -1.03125,-1.0898438 0,-0.3867187 0.2929687,-0.6445312 0.7265625,-0.6445312 0.3164062,0 0.609375,0.1289062 0.8554687,0.3867187 0.2109375,0.2226563 0.3164063,0.3984375 0.421875,0.8203125 H 3.2708516 L 3.1185078,-4.712375 H 2.9661641 C 2.9427266,-4.5600313 2.8724141,-4.478 2.7435078,-4.478 c -0.070312,0 -0.1757812,-0.023437 -0.3046875,-0.082031 -0.2578125,-0.09375 -0.5039062,-0.1523437 -0.75,-0.1523437 -0.2695312,0 -0.5625,0.1054687 -0.78515624,0.2929687 -0.26953125,0.2226563 -0.41015625,0.515625 -0.41015625,0.9023438 0,0.5507812 0.3046875,0.9375 1.08984379,1.359375 0.5039062,0.2695312 0.8671875,0.5507812 1.0429687,0.8085937 0.058594,0.09375 0.09375,0.234375 0.09375,0.4101563 0,0.46875 -0.3515625,0.78515625 -0.8554687,0.78515625 -0.6328125,0 -1.06640629,-0.38671875 -1.40625004,-1.23046875 h -0.1640625 l 0.2109375,1.4765625 h 0.15234375 c 0.0117188,-0.140625 0.09375,-0.234375 0.19921875,-0.234375 0.0703125,0 0.18750004,0.0234375 0.32812504,0.08203125 0.2578125,0.10546875 0.5390625,0.15234375 0.8203125,0.15234375 0.8085937,0 1.4179687,-0.55078125 1.4179687,-1.2656253 z m 1.7900391,-1.6289063 c 0,-0.2226562 -0.1757813,-0.3984375 -0.3867188,-0.3984375 -0.2109375,0 -0.3867187,0.1757813 -0.3867187,0.3984375 0,0.1992188 0.1757812,0.375 0.375,0.375 0.2226562,0 0.3984375,-0.1757812 0.3984375,-0.375 z m 0,2.4960938 c 0,-0.2109375 -0.1757813,-0.3984375 -0.3867188,-0.3984375 -0.2109375,0 -0.3867187,0.1875 -0.3867187,0.3984375 0,0.2109375 0.1757812,0.38671875 0.375,0.38671875 0.2226562,0 0.3984375,-0.17578125 0.3984375,-0.38671875 z m 5.7685546,-0.8671875 c 0,-0.5742188 -0.386719,-1.0195313 -1.3007812,-1.5234375 -0.7382812,-0.3984375 -1.03125,-0.703125 -1.03125,-1.0898438 0,-0.3867187 0.2929688,-0.6445312 0.7265625,-0.6445312 0.3164063,0 0.609375,0.1289062 0.8554687,0.3867187 0.210938,0.2226563 0.316406,0.3984375 0.421875,0.8203125 h 0.175781 L 10.677102,-4.712375 h -0.152344 c -0.02344,0.1523437 -0.09375,0.234375 -0.222656,0.234375 -0.07031,0 -0.175782,-0.023437 -0.3046879,-0.082031 -0.2578125,-0.09375 -0.5039063,-0.1523437 -0.75,-0.1523437 -0.2695313,0 -0.5625,0.1054687 -0.7851563,0.2929687 -0.2695312,0.2226563 -0.4101562,0.515625 -0.4101562,0.9023438 0,0.5507812 0.3046875,0.9375 1.0898437,1.359375 0.5039063,0.2695312 0.8671877,0.5507812 1.0429687,0.8085937 0.05859,0.09375 0.09375,0.234375 0.09375,0.4101563 0,0.46875 -0.3515624,0.78515625 -0.8554687,0.78515625 -0.6328125,0 -1.0664062,-0.38671875 -1.40625,-1.23046875 H 7.8528828 l 0.2109375,1.4765625 h 0.1523438 c 0.011719,-0.140625 0.09375,-0.234375 0.1992187,-0.234375 0.070312,0 0.1875,0.0234375 0.328125,0.08203125 0.2578125,0.10546875 0.5390625,0.15234375 0.8203125,0.15234375 0.8085937,0 1.4179687,-0.55078125 1.4179687,-1.2656253 z m 2.645508,1.171875 v -0.12890625 c -0.5625,-0.0234375 -0.679688,-0.1171875 -0.679688,-0.6328125 V -3.8569063 c 0,-0.5039062 0.09375,-0.5976562 0.679688,-0.6328125 V -4.618625 h -2.0625 v 0.1289062 c 0.585937,0.035156 0.667969,0.1171875 0.667969,0.6328125 v 3.09375005 c 0,0.52734375 -0.08203,0.609375 -0.667969,0.6328125 v 0.12890625 z m 3.19043,-4.7460938 -0.07031,-0.046875 c -0.105469,0.140625 -0.175781,0.1757813 -0.316406,0.1757813 h -1.453125 l -0.761719,1.6523437 c -0.01172,0.011719 -0.01172,0.035156 -0.01172,0.035156 0,0.035156 0.02344,0.058594 0.08203,0.058594 0.222656,0 0.503906,0.046875 0.785156,0.140625 0.808594,0.2578125 1.171875,0.6914063 1.171875,1.3828125 0,0.6679688 -0.421875,1.1835938 -0.960938,1.1835938 -0.140625,0 -0.257812,-0.046875 -0.46875,-0.19921875 -0.222656,-0.1640625 -0.386718,-0.234375 -0.527343,-0.234375 -0.210938,0 -0.304688,0.09375 -0.304688,0.2578125 0,0.26953125 0.328125,0.43359375 0.855469,0.43359375 0.585937,0 1.078125,-0.1875 1.429687,-0.5390625 0.328125,-0.31640625 0.46875,-0.7148438 0.46875,-1.2421875 0,-0.5039063 -0.128906,-0.8203125 -0.480468,-1.171875 -0.304688,-0.3046875 -0.703125,-0.46875 -1.523438,-0.609375 l 0.292969,-0.5976563 h 1.359375 c 0.117187,0 0.140625,-0.011719 0.164062,-0.058594 z m 3.439453,3.2226563 c 0,-0.3632813 -0.105469,-0.6914063 -0.316407,-0.9023438 -0.140625,-0.1523437 -0.269531,-0.234375 -0.574218,-0.375 0.480468,-0.328125 0.65625,-0.5859375 0.65625,-0.9609375 0,-0.5625 -0.445313,-0.9492187 -1.089844,-0.9492187 -0.351563,0 -0.65625,0.1171875 -0.902344,0.3398437 -0.210937,0.1875 -0.316406,0.3632813 -0.46875,0.7851563 l 0.105469,0.035156 c 0.28125,-0.515625 0.597656,-0.75 1.03125,-0.75 0.457031,0 0.773437,0.3164063 0.773437,0.75 0,0.2578125 -0.105468,0.5039063 -0.28125,0.6796875 -0.210937,0.2109375 -0.410156,0.3164063 -0.878906,0.4804688 v 0.09375 c 0.410156,0 0.574219,0.011719 0.738281,0.070312 0.433594,0.1523437 0.703125,0.5507812 0.703125,1.03125 0,0.5859375 -0.398437,1.04296875 -0.914062,1.04296875 -0.1875,0 -0.328125,-0.046875 -0.585938,-0.22265625 C 18.042336,-0.493625 17.925148,-0.5405 17.807961,-0.5405 c -0.152344,0 -0.257813,0.09375 -0.257813,0.234375 0,0.24609375 0.292969,0.3984375 0.785157,0.3984375 0.539062,0 1.089843,-0.17578125 1.417968,-0.46875 0.328125,-0.28125 0.503907,-0.6796875 0.503907,-1.1484375 z m 3.793945,0.5625 -0.09375,-0.0234375 c -0.257812,0.38671875 -0.351562,0.45703125 -0.667969,0.45703125 H 21.625344 L 22.797219,-1.75925 c 0.621094,-0.6445313 0.890625,-1.171875 0.890625,-1.7226563 0,-0.6914062 -0.5625,-1.2304687 -1.289063,-1.2304687 -0.386718,0 -0.738281,0.1523437 -0.996093,0.4335937 -0.234375,0.234375 -0.328125,0.4570313 -0.457032,0.9492188 l 0.152344,0.035156 c 0.28125,-0.6796875 0.527344,-0.9023437 1.007813,-0.9023437 0.585937,0 0.984375,0.3984375 0.984375,0.984375 0,0.5390625 -0.316407,1.1835937 -0.902344,1.8046875 l -1.242188,1.32421875 v 0.08203125 h 2.71875 z m 0,0"
       style="fill:#000000;fill-opacity:1;fill-rule:nonzero;stroke:none"
       aria-label="S:SI532"
       transform="matrix(1.3333333,0,0,1.3333333,108.86933,42.970667)" />
    <path
       id="path21"
       d="m 73.40428,-45.17487 h 34.14632 v 20.74142 H 73.40428 Z"
       style="fill:none;stroke:#808080;stroke-width:0.3985;stroke-linecap:butt;stroke-linejoin:miter;stroke-miterlimit:10;stroke-dasharray:none;stroke-opacity:1"
       transform="matrix(1.3333333,0,0,-1.3333333,21.688,91.072)" />
    <path
       id="path22"
       d="m 4.0772344,-2.5323984 c 0.1171875,0 0.1875,0 0.2578125,-0.058594 0.09375,-0.070312 0.1171875,-0.1757812 0.1171875,-0.2226562 0,-0.1875 -0.1875,-0.1875 -0.3046875,-0.1875 h -1.78125 c -1.1132813,0 -1.95703127,1.1015625 -1.95703127,1.9335937 0,0.64453126 0.48046875,1.13671876 1.19531247,1.13671876 0.8789063,0 1.8867188,-0.796875 1.8867188,-1.86328126 0,-0.1054687 0,-0.421875 -0.2109375,-0.7382812 z m -2.4726563,2.40234371 c -0.375,0 -0.67968747,-0.24609375 -0.67968747,-0.73828125 0,-0.21093746 0.11718747,-1.66406246 1.32421877,-1.66406246 0.3515625,0 0.7148437,0.1289062 0.7148437,0.6679687 0,0.1171875 -0.058594,0.75 -0.4101562,1.21875001 -0.2929688,0.375 -0.6796875,0.515625 -0.9492188,0.515625 z m 0,0"
       style="fill:#808080;fill-opacity:1;fill-rule:nonzero;stroke:none"
       aria-label="σ"
       transform="matrix(1.3333333,0,0,1.3333333,127.384,134.232)" />
    <path
       id="path23"
       d="m 2.9534219,-2.4483437 -0.035156,-0.84375 H 0.11748438 l -0.03515625,0.84375 h 0.1171875 c 0.12890625,-0.5507813 0.234375,-0.6445313 0.796875,-0.6445313 H 1.2659219 v 2.49609375 c 0,0.421875 -0.058594,0.48046875 -0.46875002,0.50390625 V 8.75e-4 H 2.2502969 v -0.09375 C 1.8401406,-0.1163125 1.7698281,-0.17490625 1.7698281,-0.5381875 V -3.092875 h 0.2695313 c 0.5742187,0 0.6796875,0.09375 0.796875,0.6445313 z m 3.5126953,0.8203125 c 0,-0.4921875 -0.140625,-0.9140625 -0.4101563,-1.21875 -0.3164062,-0.3398438 -0.7382812,-0.515625 -1.21875,-0.515625 -0.9492187,0 -1.6289062,0.7148437 -1.6289062,1.7109375 0,0.46875 0.1640625,0.9257812 0.4335937,1.21874995 0.2929688,0.3046875 0.7265625,0.50390625 1.171875,0.50390625 0.984375,0 1.6523438,-0.703125 1.6523438,-1.6992187 z m -0.5625,0 c 0,0.2929687 -0.070312,0.63281245 -0.1640625,0.89062495 C 5.6926797,-0.6085 5.6106484,-0.4913125 5.4934609,-0.374125 c -0.1757812,0.17578125 -0.3984375,0.26953125 -0.65625,0.26953125 -0.234375,0 -0.4570312,-0.09375 -0.6328125,-0.24609375 -0.2578125,-0.234375 -0.421875,-0.7382812 -0.421875,-1.2890625 0,-0.5039062 0.140625,-0.984375 0.3515625,-1.21875 0.1875,-0.2226562 0.4335938,-0.328125 0.703125,-0.328125 0.234375,0 0.46875,0.09375 0.6445313,0.2460938 0.2695312,0.2460937 0.421875,0.7148437 0.421875,1.3125 z M 9.861625,8.75e-4 v -0.09375 C 9.6389688,-0.10459375 9.5920938,-0.1631875 9.4163125,-0.52646875 L 8.174125,-3.3506875 H 8.0686563 l -1.03125,2.4375 C 6.721,-0.186625 6.6624063,-0.10459375 6.4163125,-0.092875 v 0.09375 h 0.9960938 v -0.09375 c -0.2460938,0 -0.3398438,-0.0703125 -0.3398438,-0.2109375 0,-0.0585938 0.011719,-0.12890625 0.035156,-0.1875 L 7.3420938,-1.07725 H 8.642875 l 0.1992188,0.48046875 c 0.058594,0.140625 0.09375,0.26953125 0.09375,0.33984375 0,0.046875 -0.023437,0.09375 -0.070312,0.1171875 -0.058594,0.0351563 -0.09375,0.046875 -0.2695313,0.046875 V 8.75e-4 Z M 8.5725625,-1.2764687 H 7.424125 l 0.5742188,-1.3710938 z m 0,0"
       style="fill:#808080;fill-opacity:1;fill-rule:nonzero;stroke:none"
       aria-label="TOA"
       transform="matrix(1.3333333,0,0,1.3333333,133.53867,135.56133)" />
    <path
       id="path24"
       d="M 2.0857813,1.0886953 V 0.91291406 H 1.488125 c -0.234375,0 -0.3398437,-0.1171875 -0.3398437,-0.36328125 V -4.1378672 c 0,-0.2109375 0.082031,-0.3046875 0.3046875,-0.3046875 H 2.0857813 V -4.6183359 H 0.60921875 v 5.7070312 z m 2.6630859,-1.91015624 c 0,-0.35156246 -0.1640625,-0.58593746 -0.5859375,-0.83203126 l -0.75,-0.4453125 c -0.1992188,-0.1171875 -0.3046875,-0.28125 -0.3046875,-0.4804687 0,-0.28125 0.2226562,-0.46875 0.5390625,-0.46875 0.3984375,0 0.609375,0.234375 0.7734375,0.8554687 h 0.09375 l -0.023437,-0.9492187 h -0.070312 l -0.023437,0.011719 c -0.058594,0.058594 -0.070312,0.058594 -0.09375,0.058594 -0.046875,0 -0.1171875,-0.011719 -0.1875,-0.046875 -0.1523438,-0.058594 -0.3046875,-0.082031 -0.4804688,-0.082031 -0.5625,0 -0.9609375,0.3515625 -0.9609375,0.8554688 0,0.3867187 0.2226563,0.6679687 0.8203125,1.0078125 l 0.3984375,0.2226562 c 0.2460938,0.14062501 0.3632813,0.31640626 0.3632813,0.52734376 0,0.3046875 -0.2226563,0.50390625 -0.5742188,0.50390625 -0.4804687,0 -0.7265625,-0.26953125 -0.890625,-0.97265621 H 2.6863672 v 1.07812496 h 0.09375 c 0.046875,-0.0703125 0.070312,-0.08203125 0.1523437,-0.08203125 0.082031,0 0.1523438,0.01171875 0.328125,0.05859375 0.1875,0.046875 0.3632813,0.0703125 0.515625,0.0703125 0.5273438,0 0.9726563,-0.41015625 0.9726563,-0.8906258 z M 6.7469141,1.0886953 V -4.6183359 H 5.2703516 v 0.1757812 h 0.5976562 c 0.234375,0 0.3515625,0.1171875 0.3515625,0.3632813 v 4.68749996 c 0,0.2109375 -0.1054687,0.3046875 -0.3164062,0.3046875 H 5.2703516 V 1.0886953 Z m 0,0"
       style="fill:#808080;fill-opacity:1;fill-rule:nonzero;stroke:none"
       aria-label="[s]"
       transform="matrix(1.3333333,0,0,1.3333333,147.45333,134.232)" />
    <path
       id="path25"
       d="m 2.1223047,1.1245312 c -0.5625,-0.44531245 -0.75,-0.6914062 -0.9375,-1.2070312 -0.1757813,-0.46875 -0.24609376,-0.9960938 -0.24609376,-1.6992188 0,-0.7265625 0.0820313,-1.3007812 0.28124996,-1.734375 0.1875,-0.4335937 0.3984375,-0.6796875 0.9023438,-1.0898437 L 2.0637107,-4.7114063 C 1.536367,-4.3832813 1.3371482,-4.1957813 1.0793357,-3.879375 0.57542949,-3.27 0.34105449,-2.5785938 0.34105449,-1.7582813 c 0,0.89062505 0.2578125,1.57031255 0.86718751,2.2851563 C 1.4894922,0.855 1.6769922,1.0073437 2.0402734,1.23 Z M 5.6027734,-1.629375 c 0,-0.9140625 -0.6445312,-1.5820313 -1.5351562,-1.5820313 -0.9140625,0 -1.546875,0.6679688 -1.546875,1.640625 0,0.93750005 0.65625,1.64062505 1.5351562,1.64062505 0.8789063,0 1.546875,-0.73828125 1.546875,-1.69921875 z m -0.6328125,0.2460937 c 0,0.7851563 -0.3164062,1.2539063 -0.8320312,1.2539063 -0.28125,0 -0.5390625,-0.1640625 -0.6796875,-0.4453125 -0.1992188,-0.36328125 -0.3046875,-0.84375 -0.3046875,-1.3476563 0,-0.65625 0.328125,-1.0898437 0.8203125,-1.0898437 0.5859375,0 0.9960937,0.6679687 0.9960937,1.6289062 z M 9.0891016,-1.723125 c 0,-0.8671875 -0.4921875,-1.4882813 -1.171875,-1.4882813 -0.3867188,0 -0.6914063,0.1757813 -0.9960938,0.5507813 v -0.5390625 l -0.046875,-0.011719 c -0.375,0.1523438 -0.6210937,0.2460938 -1.0078125,0.3632813 v 0.1054687 c 0.070312,0 0.1171875,0 0.1757813,0 0.234375,0 0.2929687,0.070312 0.2929687,0.3867188 v 3.26953125 c 0,0.36328125 -0.082031,0.43359375 -0.4921875,0.48046875 V 1.51125 h 1.6875 V 1.3823437 c -0.5273437,0 -0.609375,-0.082031 -0.609375,-0.51562495 v -1.1015625 c 0.234375,0.234375 0.4101563,0.3046875 0.703125,0.3046875 0.8203125,0 1.4648438,-0.78515625 1.4648438,-1.79296875 z m -0.609375,0.2695312 c 0,0.77343755 -0.3398438,1.3007813 -0.84375,1.3007813 -0.3164063,0 -0.7148438,-0.2578125 -0.7148438,-0.45703125 V -2.3325 c 0,-0.2109375 0.3867188,-0.4570313 0.703125,-0.4570313 0.515625,0 0.8554688,0.5273438 0.8554688,1.3359375 z M 11.242422,-0.4575 11.148672,-0.5395313 c -0.152344,0.1875 -0.257813,0.24609375 -0.410156,0.24609375 -0.257813,0 -0.363282,-0.17578125 -0.363282,-0.6328125 V -2.9184376 h 0.703125 v -0.2226563 h -0.703125 v -0.8085937 c 0,-0.070312 -0.02344,-0.09375 -0.05859,-0.09375 -0.03516,0.070312 -0.08203,0.1406249 -0.128907,0.1992186 -0.2578121,0.3867188 -0.5039059,0.6445313 -0.6796871,0.75 -0.082031,0.046875 -0.1171875,0.09375 -0.1171875,0.1289063 0,0.023437 0,0.035156 0.023437,0.046875 h 0.375 v 2.0976563 c 0,0.5859375 0.2109366,0.890625 0.6093746,0.890625 0.351562,0 0.609375,-0.1640625 0.84375,-0.52734375 z m 1.760742,0.45703125 V -0.1059375 c -0.46875,-0.0351562 -0.515625,-0.10546875 -0.515625,-0.609375 v -2.4726563 l -0.03516,-0.023437 -1.078125,0.3867188 v 0.1054687 l 0.05859,-0.011719 c 0.08203,-0.011719 0.175781,-0.011719 0.234375,-0.011719 0.164062,0 0.234375,0.1054688 0.234375,0.4101563 v 1.6171875 c 0,0.50390625 -0.07031,0.5859375 -0.550782,0.609375 V -4.6875e-4 Z M 12.546133,-4.4067188 c 0,-0.1992187 -0.152344,-0.3515625 -0.351563,-0.3515625 -0.199218,0 -0.363281,0.1523438 -0.363281,0.3515625 0,0.1992188 0.164063,0.3515625 0.363281,0.3515625 0.199219,0 0.351563,-0.1523437 0.351563,-0.3515625 z m 3.908203,2.7773438 c 0,-0.9140625 -0.644531,-1.5820313 -1.535156,-1.5820313 -0.914063,0 -1.546875,0.6679688 -1.546875,1.640625 0,0.93750005 0.65625,1.64062505 1.535156,1.64062505 0.878906,0 1.546875,-0.73828125 1.546875,-1.69921875 z m -0.632813,0.2460937 c 0,0.7851563 -0.316406,1.2539063 -0.832031,1.2539063 -0.28125,0 -0.539062,-0.1640625 -0.679687,-0.4453125 -0.199219,-0.36328125 -0.304688,-0.84375 -0.304688,-1.3476563 0,-0.65625 0.328125,-1.0898437 0.820313,-1.0898437 0.585937,0 0.996093,0.6679687 0.996093,1.6289062 z m 4.22461,1.38281255 V -0.1059375 C 19.69457,-0.14109375 19.612539,-0.223125 19.612539,-0.56296875 V -2.1567188 c 0,-0.65625 -0.304687,-1.0546875 -0.820312,-1.0546875 -0.316407,0 -0.539063,0.1171875 -1.007813,0.5625 v -0.5507812 l -0.04687,-0.011719 C 17.385977,-3.0825 17.151602,-3.0004688 16.776602,-2.895 v 0.1171875 c 0.03516,-0.023437 0.105468,-0.023437 0.1875,-0.023437 0.1875,0 0.257812,0.1054687 0.257812,0.4453125 v 1.72265625 c 0,0.3984375 -0.08203,0.50390625 -0.433594,0.52734375 v 0.10546875 h 1.476563 V -0.1059375 C 17.91332,-0.129375 17.807852,-0.21140625 17.807852,-0.46921875 V -2.42625 c 0.328125,-0.3164063 0.480468,-0.3984375 0.714843,-0.3984375 0.339844,0 0.503907,0.2109375 0.503907,0.6796875 v 1.453125 c 0,0.4453125 -0.08203,0.5625 -0.433594,0.5859375 v 0.10546875 z m 3.18457,-0.28125 V -0.4575 c -0.117187,0.09375 -0.199219,0.12890625 -0.304687,0.12890625 -0.164063,0 -0.210938,-0.09375 -0.210938,-0.3984375 V -2.098125 c 0,-0.3515625 -0.03516,-0.5507813 -0.128906,-0.703125 -0.152344,-0.2695313 -0.445313,-0.4101563 -0.878906,-0.4101563 -0.351563,0 -0.691407,0.1054688 -0.878907,0.2578125 -0.175781,0.1523438 -0.292968,0.3515625 -0.292968,0.5273438 0,0.1640625 0.140625,0.3046875 0.304687,0.3046875 0.164063,0 0.316406,-0.140625 0.316406,-0.2929688 0,-0.035156 -0.01172,-0.070312 -0.02344,-0.1171875 -0.01172,-0.058594 -0.01172,-0.1171875 -0.01172,-0.1640625 0,-0.1875 0.222656,-0.3398437 0.503906,-0.3398437 0.339844,0 0.527344,0.1992187 0.527344,0.5742187 v 0.421875 c -1.078125,0.4335938 -1.195312,0.4921875 -1.5,0.7617188 -0.152344,0.1289062 -0.246094,0.375 -0.246094,0.59765625 0,0.4453125 0.304688,0.75 0.726563,0.75 0.316406,0 0.597656,-0.15234375 1.019531,-0.50390625 0.03516,0.36328125 0.164063,0.50390625 0.445313,0.50390625 0.246093,0 0.386718,-0.08203125 0.632812,-0.3515625 z M 22.152578,-0.8559375 c 0,0.2109375 -0.03516,0.28125 -0.1875,0.36328125 -0.164062,0.10546875 -0.363281,0.15234375 -0.503906,0.15234375 -0.246094,0 -0.445313,-0.234375 -0.445313,-0.52734375 v -0.0351563 c 0,-0.41015625 0.292969,-0.65625005 1.136719,-0.96093755 z m 2.882813,0.85546875 V -0.1059375 c -0.445313,-0.0234375 -0.527344,-0.09375 -0.527344,-0.48046875 V -4.7465625 l -0.02344,-0.011719 c -0.363281,0.1171875 -0.632812,0.1875 -1.113281,0.3046875 v 0.1054688 h 0.04687 c 0.07031,0 0.164063,-0.011719 0.210938,-0.011719 0.222656,0 0.292968,0.09375 0.292968,0.421875 v 3.32812505 c 0,0.375 -0.09375,0.46875 -0.539062,0.50390625 V -4.6875e-4 Z M 27.174063,-1.723125 c 0,-0.890625 -0.257813,-1.5703125 -0.878907,-2.2851563 -0.28125,-0.328125 -0.46875,-0.4804687 -0.832031,-0.703125 l -0.08203,0.1054688 c 0.5625,0.4453125 0.75,0.6914062 0.949219,1.2070312 0.164062,0.46875 0.234375,0.9960938 0.234375,1.6992188 0,0.7265625 -0.08203,1.30078125 -0.269532,1.72265625 C 26.095938,0.46828125 25.885,0.714375 25.381094,1.1245312 L 25.451406,1.23 c 0.515625,-0.328125 0.714844,-0.515625 0.984375,-0.83203125 0.492188,-0.609375 0.738282,-1.30078125 0.738282,-2.12109375 z m 0,0"
       style="fill:#808080;fill-opacity:1;fill-rule:nonzero;stroke:none"
       aria-label="(optional)"
       transform="matrix(1.3333333,0,0,1.3333333,123.98667,144.86)" />
    <path
       id="path26"
       d="M 7.83754,32.45943 8.46251,14.66359"
       style="fill:none;stroke:#000000;stroke-width:0.3985;stroke-linecap:butt;stroke-linejoin:miter;stroke-miterlimit:10;stroke-dasharray:none;stroke-opacity:1"
       transform="matrix(1.3333333,0,0,-1.3333333,21.688,91.072)" />
    <path
       id="path27"
       d="M 4.21463,0 0.64343,1.34572 1.8178,0 0.64343,-1.34572 Z"
       style="fill:#000000;fill-opacity:1;fill-rule:nonzero;stroke:#000000;stroke-width:0.3985;stroke-linecap:butt;stroke-linejoin:miter;stroke-miterlimit:10;stroke-dasharray:none;stroke-opacity:1"
       transform="matrix(0.04677333,1.3324933,1.3324933,-0.04677333,32.890987,69.23104)" />
    <path
       id="path28"
       d="m 32.26993,-24.23418 3.46148,17.48175"
       style="fill:none;stroke:#000000;stroke-width:0.3985;stroke-linecap:butt;stroke-linejoin:miter;stroke-miterlimit:10;stroke-dasharray:none;stroke-opacity:1"
       transform="matrix(1.3333333,0,0,-1.3333333,21.688,91.072)" />
    <path
       id="path29"
       d="M 4.21463,0 0.64343,1.34572 1.8178,0 0.64343,-1.34572 Z"
       style="fill:#000000;fill-opacity:1;fill-rule:nonzero;stroke:#000000;stroke-width:0.3985;stroke-linecap:butt;stroke-linejoin:miter;stroke-miterlimit:10;stroke-dasharray:none;stroke-opacity:1"
       transform="matrix(0.25893333,-1.3079067,-1.3079067,-0.25893333,68.885,102.32247)" />
    <path
       id="path30"
       d="M 74.7298,32.45943 69.36465,14.53667"
       style="fill:none;stroke:#000000;stroke-width:0.3985;stroke-linecap:butt;stroke-linejoin:miter;stroke-miterlimit:10;stroke-dasharray:none;stroke-opacity:1"
       transform="matrix(1.3333333,0,0,-1.3333333,21.688,91.072)" />
    <path
       id="path31"
       d="M 4.21463,0 0.64343,1.34572 1.8178,0 0.64343,-1.34572 Z"
       style="fill:#000000;fill-opacity:1;fill-rule:nonzero;stroke:#000000;stroke-width:0.3985;stroke-linecap:butt;stroke-linejoin:miter;stroke-miterlimit:10;stroke-dasharray:none;stroke-opacity:1"
       transform="matrix(-0.38234667,1.2772667,1.2772667,0.38234667,114.83115,69.4952)" />
    <path
       id="path32"
       d="M 88.48381,-24.23418 85.33058,-7.5267"
       style="fill:none;stroke:#808080;stroke-width:0.3985;stroke-linecap:butt;stroke-linejoin:miter;stroke-miterlimit:10;stroke-dasharray:none;stroke-opacity:1"
       transform="matrix(1.3333333,0,0,-1.3333333,21.688,91.072)" />
    <path
       id="path33"
       d="M 4.21463,0 0.64343,1.34572 1.8178,0 0.64343,-1.34572 Z"
       style="fill:#808080;fill-opacity:1;fill-rule:nonzero;stroke:#808080;stroke-width:0.3985;stroke-linecap:butt;stroke-linejoin:miter;stroke-miterlimit:10;stroke-dasharray:none;stroke-opacity:1"
       transform="matrix(-0.24722667,-1.3101333,-1.3101333,0.24722667,135.88692,103.35868)" />
  </g>
</svg>
